<svg xmlns="http://www.w3.org/2000/svg" viewBox="0 0 40.75 36.45"><defs><style>.cls-1,.cls-2{fill:none;stroke:#f18601;stroke-miterlimit:10;stroke-width:0.75px;}.cls-1{stroke-linecap:round;}.cls-3{fill:#f18601;}</style></defs><g id="Layer_2" data-name="Layer 2"><g id="Layer_1-2" data-name="Layer 1"><circle class="cls-1" cx="37.28" cy="32.98" r="2"/><path class="cls-2" d="M17.68.38A17.25,17.25,0,1,0,35,17.57,17.28,17.28,0,0,0,17.68.38Z"/><line class="cls-2" x1="16.28" y1="17.68" x2="17.37" y2="15.37"/><line class="cls-2" x1="9.97" y1="15.37" x2="11.57" y2="17.68"/><line class="cls-2" x1="7.68" y1="20.07" x2="9.18" y2="20.87"/><line class="cls-2" x1="8.47" y1="24.78" x2="9.97" y2="23.98"/><line class="cls-2" x1="12.37" y1="27.87" x2="12.87" y2="26.48"/><line class="cls-2" x1="17.07" y1="27.87" x2="16.28" y2="26.28"/><line class="cls-2" x1="19.78" y1="24.67" x2="18.57" y2="23.98"/><path class="cls-3" d="M14.07,17.37a4.4,4.4,0,1,1-4.39,4.4,4.37,4.37,0,0,1,4.39-4.4m0-.69a5.2,5.2,0,1,0,5.21,5.19,5.23,5.23,0,0,0-5.21-5.19Z"/><path class="cls-3" d="M9,12.18a1.6,1.6,0,1,1-1.6,1.6A1.58,1.58,0,0,1,9,12.18m0-.81a2.4,2.4,0,1,0,2.4,2.4A2.43,2.43,0,0,0,9,11.37Z"/><circle class="cls-2" cx="19.87" cy="18.87" r="1.2"/><path class="cls-3" d="M20.78,24.37a.8.8,0,0,1,0,1.6.74.74,0,0,1-.8-.8.85.85,0,0,1,.8-.8m0-.7a1.5,1.5,0,1,0,1.5,1.5,1.47,1.47,0,0,0-1.5-1.5Z"/><circle class="cls-2" cx="17.57" cy="29.17" r="1.3"/><circle class="cls-2" cx="11.87" cy="29.17" r="1.5"/><circle class="cls-2" cx="7.18" cy="25.28" r="1.2"/><path class="cls-3" d="M6,17.68a1.6,1.6,0,1,1-1.6,1.6A1.58,1.58,0,0,1,6,17.68M6,17a2.4,2.4,0,0,0,0,4.8A2.4,2.4,0,0,0,6,17Z"/><path class="cls-2" d="M17.87,12.57a1.5,1.5,0,1,0,1.5,1.5,1.41,1.41,0,0,0-1.5-1.5Z"/><circle class="cls-3" cx="12.28" cy="22.57" r="1.5"/><circle class="cls-3" cx="15.97" cy="21.18" r="1.5"/><circle class="cls-3" cx="13.28" cy="19.47" r="1.2"/><circle class="cls-3" cx="14.87" cy="23.78" r="0.7"/><circle class="cls-3" cx="15.37" cy="18.87" r="0.5"/><path class="cls-3" d="M16.28,2.47c-.1,0-.1,0-.21.1a.3.3,0,0,0,0,.4c.5.4.9.8,1.3,1.1,3.5,3.11,4,3.5,4.8,7.4.5,2.6,2.5,4.31,4.6,6a5.24,5.24,0,0,1,1.1,1,.28.28,0,0,0,.4-.4c-.4-.29-.8-.7-1.2-1-2-1.7-3.9-3.29-4.4-5.7-.8-4.1-1.4-4.6-5-7.7a12,12,0,0,1-1.2-1.1A.3.3,0,0,0,16.28,2.47Z"/><path class="cls-3" d="M25.47,12.18c-.1,0-.1,0-.2.1l-1,1.2a.28.28,0,1,0,.4.4l1-1.2a.3.3,0,0,0,0-.4A.31.31,0,0,0,25.47,12.18Z"/><path class="cls-3" d="M28.78,14.87c-.1,0-.1,0-.21.1l-1.2,1.4a.33.33,0,0,0,0,.4.32.32,0,0,0,.41,0l1.2-1.4a.33.33,0,0,0,0-.4C28.87,14.87,28.87,14.87,28.78,14.87Z"/><path class="cls-3" d="M27.17,13.47c-.1,0-.1,0-.2.1L25.77,15a.28.28,0,1,0,.4.4l1.2-1.4a.3.3,0,0,0,0-.4C27.28,13.47,27.28,13.47,27.17,13.47Z"/><path class="cls-3" d="M19.78,7.18c-.1,0-.1,0-.21.1l-1,1.2a.28.28,0,0,0,.4.4l1-1.2a.3.3,0,0,0,0-.4C20,7.18,19.87,7.18,19.78,7.18Z"/><path class="cls-3" d="M16.68,4.18c-.11,0-.11,0-.21.1l-1.2,1.4a.28.28,0,1,0,.4.39l1.2-1.39a.3.3,0,0,0,0-.4C16.78,4.27,16.78,4.18,16.68,4.18Z"/><path class="cls-3" d="M18.28,5.68c-.1,0-.1,0-.21.1l-1.2,1.4a.29.29,0,0,0,0,.39.28.28,0,0,0,.4,0l1.2-1.39a.3.3,0,0,0,0-.4C18.47,5.68,18.37,5.68,18.28,5.68Z"/><path class="cls-3" d="M13.68,5.38c-.11,0-.11,0-.21.1a.3.3,0,0,0,0,.4A14.45,14.45,0,0,1,14.68,7c3.5,3.09,4.1,3.7,8.3,3.9,2.4.1,4.3,1.8,6.2,3.6.4.3.7.7,1.1,1a.28.28,0,1,0,.4-.4c-.4-.3-.7-.7-1.1-1-2-1.9-4-3.6-6.6-3.8-3.9-.2-4.5-.7-7.9-3.8a12,12,0,0,1-1.2-1.1Z"/><line class="cls-2" x1="31.07" y1="28.28" x2="34.98" y2="31.37"/><circle class="cls-1" cx="37.28" cy="32.98" r="3.1"/></g></g></svg>