<svg xmlns="http://www.w3.org/2000/svg" viewBox="0 0 41.05 40.95"><defs><style>.cls-1{fill:none;stroke:#f18601;stroke-linecap:round;stroke-miterlimit:10;stroke-width:0.75px;}</style></defs><g id="Layer_2" data-name="Layer 2"><g id="Layer_1-2" data-name="Layer 1"><path class="cls-1" d="M10.18,8.07l-1.5-3.3c0-.1-.1-.2-.1-.3s.1-.3.2-.3c1.1-.7,2.3-1.3,3.4-2a.37.37,0,0,1,.5.2,14.63,14.63,0,0,1,.9,1.3,15.26,15.26,0,0,1,1.1,1.6.37.37,0,0,0,.3.1c.9-.2,1.7-.5,2.6-.7a.22.22,0,0,0,.2-.2l.3-3.59c0-.41.1-.5.5-.5h3.7c.3,0,.4.09.5.4.1,1.19.2,2.3.3,3.5,0,.19.1.3.3.39.79.2,1.6.4,2.5.7.2,0,.2,0,.3-.1.7-.9,1.3-1.9,2-2.8.3-.4.4-.4.8-.2,1,.6,2.09,1.2,3.09,1.8.3.2.41.3.2.7-.5,1.1-1,2.1-1.5,3.2-.09.2,0,.2.1.4l1.8,1.8a.37.37,0,0,0,.3.1c1-.5,2.1-1,3.2-1.5A.52.52,0,0,1,37,9c.6,1,1.2,2.1,1.8,3.1.2.3.2.5-.1.7-.9.7-1.9,1.3-2.8,2-.2.1-.2.2-.1.4.21.8.5,1.7.71,2.5a.21.21,0,0,0,.2.2l3.59.3c.3,0,.41.2.41.5v3.7c0,.3-.1.4-.41.5l-3.5.3c-.2,0-.29.1-.4.3a23.35,23.35,0,0,1-.7,2.5.37.37,0,0,0,.1.3c1,.7,1.9,1.3,2.8,2,.4.3.4.4.2.8l-1.8,3c-.2.4-.3.4-.7.2-.9-.4-1.9-.9-2.8-1.3-.5-.2-.5-.2-.9.2L31,32.77c-.1.1-.2.2-.1.4.5,1,1,2.1,1.4,3.1.21.4.1.5-.2.7-1,.6-2.09,1.2-3.09,1.8-.3.2-.5.2-.71-.2-.7-1-1.29-1.9-2-2.9a.3.3,0,0,0-.4-.1c-.8.2-1.7.5-2.5.7-.2,0-.2.1-.2.3-.1,1.2-.2,2.3-.3,3.5,0,.4-.1.5-.5.5h-3.6c-.3,0-.5-.1-.5-.4-.1-1.2-.2-2.4-.3-3.5,0-.2-.1-.2-.2-.3a23.35,23.35,0,0,1-2.5-.7c-.2,0-.2,0-.3.1-.6.9-1.3,1.9-2,2.8-.1.1-.1.2-.2.3a.3.3,0,0,1-.4,0c-1.1-.6-2.2-1.3-3.4-1.9-.2-.1-.2-.2-.2-.4s.1-.2.1-.3c.5-1,1-2.1,1.4-3.1.11-.1,0-.2-.1-.3-.6-.6-1.3-1.2-1.9-1.9a.37.37,0,0,0-.3-.1c-1,.5-2.09,1-3.09,1.5-.11,0-.2.1-.31.1s-.3,0-.39-.2c-.7-1.1-1.3-2.3-2-3.4a.36.36,0,0,1,.2-.5c.5-.4,1-.7,1.5-1.1s.89-.7,1.39-1a.35.35,0,0,0,.11-.3c-.2-.9-.5-1.7-.7-2.6,0-.2-.11-.2-.3-.2l-3.5-.3c-.41,0-.5-.1-.5-.5v-3.7c0-.3.09-.5.4-.5l3.6-.3c.19,0,.19-.1.19-.2.2-.9.5-1.7.7-2.6a.37.37,0,0,0-.1-.3c-.9-.7-1.9-1.3-2.8-2a.52.52,0,0,1-.2-.8c.6-1,1.2-2.1,1.8-3.1.2-.3.3-.4.7-.2.8.4,1.5.7,2.3,1.1a3,3,0,0,0,1,.4h.2c.61-.7,1.31-1.4,2-2.1Z"/><polyline class="cls-1" points="22.88 19.38 19.57 22.57 17.77 20.77"/><path class="cls-1" d="M20.18,28.07h0a8.22,8.22,0,0,1-5.4-7.7v-5.1l5.4-1.5,5.4,1.5v5.2A8,8,0,0,1,20.18,28.07Z"/><circle class="cls-1" cx="20.28" cy="20.37" r="12.5"/></g></g></svg>