<svg xmlns="http://www.w3.org/2000/svg" viewBox="0 0 423.04 268.71"><defs><style>.cls-1{fill:#FF9A15;}</style></defs><g id="Layer_2" data-name="Layer 2"><g id="Layer_1-2" data-name="Layer 1"><path class="cls-1" d="M259.82,2.46A47.41,47.41,0,0,1,304.89,35a8.26,8.26,0,0,0,7.86,5.65q.38,0,.75,0c1.37-.12,2.75-.19,4.13-.19h.13a47.58,47.58,0,0,1,47.47,48.4,47.76,47.76,0,0,1-.33,4.79,6.68,6.68,0,0,0,6.62,7.5h.21l1.39,0a49.9,49.9,0,0,1,11.35,1.33,46.84,46.84,0,0,1,35,35.91A47.77,47.77,0,0,1,410,178.43a47.26,47.26,0,0,1-34.13,17.49,47.78,47.78,0,0,1,1.2,10.54A47.59,47.59,0,0,1,329.58,254l-1.12,0a47.12,47.12,0,0,1-12.12-1.86,11.8,11.8,0,0,0-11.09,2.47,47.49,47.49,0,0,1-76-20.31,2.74,2.74,0,0,0-2.58-1.84,3.68,3.68,0,0,0-.57.06,47.55,47.55,0,0,1-44.77-14.19,2.58,2.58,0,0,0-3.75,0,47.48,47.48,0,0,1-66.21,3.4A6.92,6.92,0,0,0,106.8,220a7.08,7.08,0,0,0-2.1.32,47.51,47.51,0,0,1-61.9-41.9A47.47,47.47,0,0,1,49.93,84h.8a2.13,2.13,0,0,0,2.09-2.63A48.14,48.14,0,0,1,51.71,68a47.24,47.24,0,0,1,14-30.29A47.16,47.16,0,0,1,95.81,23.43c1.09-.07,2.2-.11,3.29-.11h0a47.31,47.31,0,0,1,25.06,7.15,8.06,8.06,0,0,0,4.24,1.21,8.29,8.29,0,0,0,7.29-4.36,47.49,47.49,0,0,1,80.43-4.92,3,3,0,0,0,2.51,1.3,3.06,3.06,0,0,0,2.52-1.3A47.61,47.61,0,0,1,259.82,2.46M218.63,27.54A6.89,6.89,0,0,1,213,24.63a43.65,43.65,0,0,0-73.93,4.52,12.14,12.14,0,0,1-10.66,6.37,11.83,11.83,0,0,1-6.27-1.8,43.41,43.41,0,0,0-23-6.56c-1,0-2,0-3,.1-20.93,1.42-39.32,20-40.52,41a44.07,44.07,0,0,0,1,12.33,6,6,0,0,1-5.83,7.32h-.8A43.64,43.64,0,0,0,46.53,175s0,.09,0,.13a43.65,43.65,0,0,0,57,41.55,10.78,10.78,0,0,1,10.4,2.18,43.63,43.63,0,0,0,60.85-3.12,6.39,6.39,0,0,1,9.38,0,43.69,43.69,0,0,0,41.16,13,7.08,7.08,0,0,1,1.37-.14,6.57,6.57,0,0,1,6.2,4.41,43.64,43.64,0,0,0,69.85,18.67,15.77,15.77,0,0,1,10.32-3.87,15.52,15.52,0,0,1,4.36.62,43.55,43.55,0,0,0,11.14,1.71h1a43.67,43.67,0,0,0,41.9-55.87,1.69,1.69,0,0,1,1.62-2.16h0a43.7,43.7,0,0,0,42.65-53.1,42.93,42.93,0,0,0-32.17-33,46,46,0,0,0-10.48-1.22c-.43,0-.86,0-1.28,0h-.32a10.5,10.5,0,0,1-10.43-11.79c.17-1.45.27-2.91.3-4.4a43.74,43.74,0,0,0-43.63-44.49h-.12c-1.28,0-2.55.06-3.8.17-.36,0-.73.05-1.09.05a12.1,12.1,0,0,1-11.5-8.28,43.66,43.66,0,0,0-77-11.54,6.88,6.88,0,0,1-5.64,2.91M259.82,0a50.07,50.07,0,0,0-40.68,21,.59.59,0,0,1-.51.26.62.62,0,0,1-.51-.26,49.94,49.94,0,0,0-84.59,5.16,5.85,5.85,0,0,1-5.13,3.08,5.57,5.57,0,0,1-2.94-.84A49.79,49.79,0,0,0,99.1,20.86c-1.14,0-2.31,0-3.46.12A49.58,49.58,0,0,0,63.93,36,49.62,49.62,0,0,0,49.25,67.86a50.33,50.33,0,0,0,1.09,13.71h-.41a49.94,49.94,0,0,0-9.41,99,50,50,0,0,0,64.93,42.14,4.43,4.43,0,0,1,1.35-.21,4.49,4.49,0,0,1,3,1.12A49.92,49.92,0,0,0,179.4,220l.06,0h.06A49.95,49.95,0,0,0,226.62,235h.06a.26.26,0,0,1,.25.17,49.94,49.94,0,0,0,79.93,21.36,9.37,9.37,0,0,1,8.79-2,49.84,49.84,0,0,0,12.75,2l1.18,0a50.05,50.05,0,0,0,49.94-50.05,51.31,51.31,0,0,0-.71-8.31,50,50,0,0,0,43.12-60.36A49.3,49.3,0,0,0,385,100a52.55,52.55,0,0,0-11.91-1.39l-1.47,0h-.13a4.22,4.22,0,0,1-4.18-4.75,50,50,0,0,0-49.58-55.94h-.14c-1.44,0-2.9.07-4.34.2l-.53,0a5.81,5.81,0,0,1-5.53-4A49.86,49.86,0,0,0,259.82,0ZM218.63,30a9.3,9.3,0,0,0,7.65-3.94A41.18,41.18,0,0,1,298.91,37a14.55,14.55,0,0,0,13.84,10c.43,0,.87,0,1.31-.06,1.18-.1,2.39-.16,3.59-.16h.11a41.28,41.28,0,0,1,41.17,42,38.41,38.41,0,0,1-.29,4.16,13,13,0,0,0,12.88,14.54h.39l1.21,0a43.62,43.62,0,0,1,9.92,1.16,40.53,40.53,0,0,1,30.32,31.07,41.5,41.5,0,0,1-8.26,34.88,41,41,0,0,1-32,15.24,4.15,4.15,0,0,0-4,5.32,41.32,41.32,0,0,1,1.64,11.45,41.28,41.28,0,0,1-41.18,41.27h-1a41,41,0,0,1-10.52-1.62,18.18,18.18,0,0,0-17,3.76,41.18,41.18,0,0,1-65.91-17.61,9,9,0,0,0-10.41-5.87,42,42,0,0,1-8.61.9A41.3,41.3,0,0,1,186,214.07a8.87,8.87,0,0,0-13,0,41.17,41.17,0,0,1-57.42,3,13.22,13.22,0,0,0-12.78-2.68A41.19,41.19,0,0,1,49,175.14v-2.41l-2.27-.17a41.18,41.18,0,0,1,3.21-82.23h.8A8.43,8.43,0,0,0,59,80a41.55,41.55,0,0,1-1-11.63C59.12,48.74,76.63,31,96.23,29.71c1-.06,1.92-.09,2.87-.09a41.05,41.05,0,0,1,21.73,6.19A14.31,14.31,0,0,0,128.4,38a14.61,14.61,0,0,0,12.83-7.66A41.18,41.18,0,0,1,211,26.06,9.28,9.28,0,0,0,218.63,30Z"/><path class="cls-1" d="M57.81,119.23a12.26,12.26,0,0,1,9.26,20.31l32,38.07h34.86a12.27,12.27,0,1,1,0,3.84H98.18a1.89,1.89,0,0,1-1.47-.69L64.13,142a12.27,12.27,0,1,1-6.32-22.78m0-2.46a14.74,14.74,0,1,0,5.69,28.31l31.32,37.27a4.4,4.4,0,0,0,3.36,1.56H132a14.73,14.73,0,1,0,0-8.76H100.22l-30-35.7a14.73,14.73,0,0,0-12.4-22.68Z"/><path class="cls-1" d="M179.14,36.73A12.26,12.26,0,0,1,190.8,52.84l12.67,6.51h49.1A12.27,12.27,0,1,1,276,66l33.21,20.39a12.21,12.21,0,1,1-2,3.26L274,69.24a12.19,12.19,0,0,1-13.72,3.48L247.5,94.86v24.53a12.27,12.27,0,1,1-14,14H166.71a12.27,12.27,0,1,1-21.53-9.79L107.25,80.18a12.24,12.24,0,1,1,2.9-2.52l37.93,43.46a12.24,12.24,0,0,1,18.63,8.46h66.77a12.27,12.27,0,0,1,10.19-10.19V93.83l13.29-23a12.23,12.23,0,0,1-4.39-7.62h-50L189,56.24a12.27,12.27,0,1,1-9.9-19.51m0-2.47a14.74,14.74,0,1,0,10.5,25.06l11.78,6.06.53.27h48.67a14.67,14.67,0,0,0,3.23,5.61L241.54,92.6l-.33.57v24.27a14.65,14.65,0,0,0-9.68,9.68H168.66a14.71,14.71,0,0,0-20-9.09L113.28,77.51a14.76,14.76,0,1,0-6.6,5.76l35.37,40.52a14.73,14.73,0,1,0,26.61,12.09h62.86A14.73,14.73,0,1,0,250,117.44V95.52l11.48-19.88a14.61,14.61,0,0,0,12.93-3.28l29.89,18.35a14.75,14.75,0,1,0,4.59-7.46L279,64.9a14.73,14.73,0,0,0-28.34-8H204.07l-10.41-5.35a15.46,15.46,0,0,0,.22-2.54,14.75,14.75,0,0,0-14.74-14.74Z"/><path class="cls-1" d="M369,137.3a12.27,12.27,0,1,1-12.11,14.19h-37.7l-30.8,23.61a12.26,12.26,0,0,1-9.52,16.54v33.74a12.27,12.27,0,1,1-3.84,0V191.64a12.27,12.27,0,1,1,11.42-19.88l31.44-24.11h39A12.27,12.27,0,0,1,369,137.3m0-2.46a14.64,14.64,0,0,0-14.06,10.35H317.06l-.66.51-29.71,22.77a14.73,14.73,0,1,0-14.12,25.12v29.84a14.73,14.73,0,1,0,8.76,0V193.59a14.64,14.64,0,0,0,10.35-14.06,14.38,14.38,0,0,0-.43-3.52L320,154h34.91A14.73,14.73,0,1,0,369,134.84Z"/></g></g></svg>