<svg xmlns="http://www.w3.org/2000/svg" viewBox="0 0 35.56 36.57"><defs><style>.cls-1,.cls-2{fill:none;stroke:#f18601;stroke-linejoin:round;stroke-width:0.75px;}.cls-2{stroke-linecap:round;}</style></defs><g id="Layer_2" data-name="Layer 2"><g id="Layer_1-2" data-name="Layer 1"><rect class="cls-1" x="0.38" y="14.82" width="13.89" height="18.51"/><path class="cls-2" d="M2,36.2H2a.73.73,0,0,1-.74-.74v-1.2H2.69v1.2A.66.66,0,0,1,2,36.2Z"/><path class="cls-1" d="M12.59,36.2h0a.73.73,0,0,1-.74-.74v-1.2h1.39v1.2A.62.62,0,0,1,12.59,36.2Z"/><path class="cls-1" d="M8.71,8.24H5.93A5.57,5.57,0,0,0,.38,13.8H14.26A5.57,5.57,0,0,0,8.71,8.24Z"/><rect class="cls-1" x="6.85" y="4.63" width="1.3" height="2.59"/><path class="cls-1" d="M7.5,4V2.41a2.05,2.05,0,0,1,2-2h5.55a2.05,2.05,0,0,1,2,2v28.7"/><rect class="cls-1" x="21.29" y="14.88" width="13.89" height="18.51"/><path class="cls-1" d="M33.52,36.2h0a.73.73,0,0,0,.74-.74v-1.2H32.87v1.2A.66.66,0,0,0,33.52,36.2Z"/><path class="cls-1" d="M23,36.2h0a.73.73,0,0,0,.74-.74v-1.2H22.31v1.2A.62.62,0,0,0,23,36.2Z"/><path class="cls-1" d="M26.85,8.24h2.78a5.57,5.57,0,0,1,5.55,5.56H21.3A5.57,5.57,0,0,1,26.85,8.24Z"/><rect class="cls-1" x="27.45" y="4.7" width="1.3" height="2.59"/><path class="cls-1" d="M28.05,4V2.41a2,2,0,0,0-2-2H20.46a2,2,0,0,0-2,2v28.7"/><rect class="cls-1" x="16.51" y="31.94" width="2.59" height="1.3"/><line class="cls-1" x1="15.83" y1="32.59" x2="14.91" y2="32.59"/><line class="cls-1" x1="19.72" y1="32.59" x2="20.65" y2="32.59"/></g></g></svg>