<svg xmlns="http://www.w3.org/2000/svg" viewBox="0 0 318.42 282.22"><defs><style>.cls-1{fill:#FF9A15;}.cls-2{fill:none;stroke:#f28a24;stroke-miterlimit:10;stroke-width:2.38px;}</style></defs><g id="Layer_2" data-name="Layer 2"><g id="Layer_1-2" data-name="Layer 1"><path class="cls-1" d="M269.9,91.46a1.11,1.11,0,0,1,1.05.73A138.93,138.93,0,0,1,271,190a1.12,1.12,0,0,1-1.05.72h-6a1.11,1.11,0,0,1-1-1.52,131.29,131.29,0,0,0,0-96.26,1.11,1.11,0,0,1,1-1.52h6m0-2.37h-6a3.48,3.48,0,0,0-3.23,4.77,128.8,128.8,0,0,1,0,94.5,3.51,3.51,0,0,0,.36,3.25,3.46,3.46,0,0,0,2.88,1.52h6a3.5,3.5,0,0,0,3.27-2.26,141.32,141.32,0,0,0,0-99.52,3.5,3.5,0,0,0-3.27-2.26Z"/><path class="cls-1" d="M141.11,2.38h.11a138,138,0,0,1,82.16,27,1.12,1.12,0,0,1-.65,2h-9.79a1.17,1.17,0,0,1-.6-.18A130.94,130.94,0,0,0,10.4,133.37C6,208.73,66.8,272,141.16,272c2.86,0,5.76-.09,8.66-.28a130.3,130.3,0,0,0,62.38-20.71,1.06,1.06,0,0,1,.6-.18h9.83a1.12,1.12,0,0,1,.65,2A138.73,138.73,0,0,1,2.39,139.14C3.43,63.65,65.62,2.37,141.11,2.38m0-2.38C64.37,0,1.08,62.4,0,139.11A141.11,141.11,0,0,0,224.69,254.8a3.49,3.49,0,0,0-2.06-6.3H212.8a3.48,3.48,0,0,0-1.89.55,128.44,128.44,0,0,1-61.25,20.34c-2.82.18-5.68.28-8.5.28a129.08,129.08,0,0,1-93.42-40.58,127.28,127.28,0,0,1-35-95.58A128.56,128.56,0,0,1,211.05,33.24a3.4,3.4,0,0,0,1.89.56h9.79a3.49,3.49,0,0,0,2.06-6.3A139.92,139.92,0,0,0,141.22,0Z"/><path class="cls-1" d="M134.49,43.34V79.57h-.9a5.68,5.68,0,0,1-5.68-5.67V49a5.68,5.68,0,0,1,5.68-5.67h.9M136.87,41h-3.28a8.05,8.05,0,0,0-8,8V73.9a8.05,8.05,0,0,0,8,8h3.28V41Z"/><path class="cls-1" d="M294.42,43.34V79.57H148.73V43.34H294.42M296.8,41H146.36V82H296.8V41Z"/><path class="cls-1" d="M310.37,43.34A5.67,5.67,0,0,1,316,49V73.9a5.67,5.67,0,0,1-5.67,5.67h-1.71V43.34h1.71m0-2.38h-4.08V82h4.08a8.06,8.06,0,0,0,8.05-8V49a8.06,8.06,0,0,0-8.05-8Z"/><path class="cls-1" d="M134.49,202.65v36.23h-.9a5.68,5.68,0,0,1-5.68-5.67V208.32a5.68,5.68,0,0,1,5.68-5.67h.9m2.38-2.38h-3.28a8.05,8.05,0,0,0-8,8v24.89a8,8,0,0,0,8,8h3.28v-41Z"/><path class="cls-1" d="M294.42,202.65v36.23H148.73V202.65H294.42m2.38-2.38H146.36v41H296.8v-41Z"/><path class="cls-1" d="M310.37,202.65a5.67,5.67,0,0,1,5.67,5.67v24.89a5.67,5.67,0,0,1-5.67,5.67h-1.71V202.65h1.71m0-2.38h-4.08v41h4.08a8.05,8.05,0,0,0,8.05-8V208.32a8.06,8.06,0,0,0-8.05-8Z"/><path class="cls-2" d="M169.18,114.93a39.62,39.62,0,1,0,.9,51.29A39.63,39.63,0,0,0,169.18,114.93Z"/><path class="cls-2" d="M163,159.64l-17-16.44a3,3,0,0,1-.08-4.26l16.5-17.09a3,3,0,0,1,4.69.43,33.44,33.44,0,0,1,.59,36.78A3,3,0,0,1,163,159.64Z"/><path class="cls-2" d="M157.88,117.54l-16.5,17.09a3,3,0,0,1-4.26.08l-17-16.45a3,3,0,0,1,.42-4.68,33.44,33.44,0,0,1,36.78-.72A3,3,0,0,1,157.88,117.54Z"/><path class="cls-2" d="M115.8,122.76l17,16.41a3,3,0,0,1,.08,4.26l-16.35,16.95a3,3,0,0,1-4.69-.43,33.46,33.46,0,0,1-.72-36.59A3,3,0,0,1,115.8,122.76Z"/><path class="cls-2" d="M121,164.69l16.36-16.95a3,3,0,0,1,4.26-.07l17,16.41a3,3,0,0,1-.43,4.7,33.46,33.46,0,0,1-36.59.58A3,3,0,0,1,121,164.69Z"/></g></g></svg>