<svg xmlns="http://www.w3.org/2000/svg" viewBox="0 0 291.03 323.01"><defs><style>.cls-1{fill:#f28a24;}</style></defs><title>symbol_community_orange</title><g id="Layer_2" data-name="Layer 2"><g id="Layer_1-2" data-name="Layer 1"><path class="cls-1" d="M30.16,78.15c30.2,0,81.36,15.65,135.32,43.2,78.31,40,132.85,89.91,121.82,111.51-3.43,6.72-12.8,9.9-26.43,9.9-30.2,0-81.36-15.64-135.32-43.19C47.24,159.58-7.3,109.65,3.73,88.06c3.43-6.72,12.8-9.91,26.43-9.91m0-2.3v0C15,75.85,5.46,79.61,1.68,87c-3.07,6-1.92,13.79,3.42,23.1,4.88,8.51,13.12,18.1,24.48,28.5,23.16,21.2,56.87,43.57,94.92,63,52.48,26.8,104.74,43.44,136.37,43.44,15.12,0,24.7-3.75,28.48-11.15,3.07-6,1.92-13.79-3.42-23.11-4.88-8.51-13.12-18.09-24.48-28.5-23.16-21.19-56.87-43.57-94.92-63C114.05,92.5,61.79,75.85,30.16,75.85Z"/><path class="cls-1" d="M260.87,78.15c13.63,0,23,3.19,26.43,9.91,11,21.59-43.51,71.52-121.82,111.51-54,27.55-105.12,43.19-135.32,43.19-13.63,0-23-3.18-26.43-9.9-11-21.6,43.51-71.52,121.82-111.51,54-27.55,105.12-43.2,135.32-43.2m0-2.3C229.24,75.85,177,92.5,124.5,119.3c-38,19.43-71.76,41.81-94.92,63-11.36,10.41-19.6,20-24.48,28.5-5.34,9.32-6.49,17.09-3.42,23.11,3.78,7.4,13.36,11.15,28.48,11.15,31.63,0,83.89-16.64,136.37-43.44,38.05-19.44,71.76-41.81,94.92-63,11.36-10.4,19.6-20,24.48-28.5,5.34-9.31,6.49-17.08,3.42-23.1-3.78-7.4-13.36-11.16-28.48-11.16Z"/><path class="cls-1" d="M144.47,2.3c24.25,0,43.91,71.28,43.91,159.21s-19.66,159.2-43.91,159.2-43.91-71.28-43.91-159.2S120.22,2.3,144.47,2.3m0-2.3c-6.75,0-13.15,4.56-19,13.56-5.36,8.21-10.15,19.91-14.25,34.76-8.34,30.26-12.94,70.46-12.94,113.19s4.6,82.92,12.94,113.18c4.1,14.85,8.89,26.55,14.25,34.77,5.87,9,12.27,13.55,19,13.55s13.15-4.56,19-13.55c5.36-8.22,10.15-19.92,14.25-34.77,8.35-30.26,12.94-70.46,12.94-113.18s-4.59-82.93-12.94-113.19c-4.1-14.85-8.89-26.55-14.25-34.76-5.87-9-12.26-13.56-19-13.56Z"/><path class="cls-1" d="M31.18,83.48h.37a7.47,7.47,0,0,1,4.7,13,3.48,3.48,0,0,0-1.1,3.06,3.57,3.57,0,0,0,1.92,2.69c.86.44,1.69.81,2.43,1.13,3.63,1.61,5.29,2.35,5.66,8.79l-27.94,0c.36-6.46,2-7.2,5.65-8.81.73-.32,1.56-.69,2.42-1.13a3.55,3.55,0,0,0,1.91-2.65,3.64,3.64,0,0,0-1.12-3.14A7.41,7.41,0,0,1,23.7,91a7.49,7.49,0,0,1,7.48-7.48m0-2.3a9.78,9.78,0,0,0-6.67,16.93,1.25,1.25,0,0,1-.26,2c-5.14,2.6-8.81,2.52-9.32,11.86a2.28,2.28,0,0,0,2.27,2.41h28A2.28,2.28,0,0,0,47.44,112c-.51-9.34-4.19-9.26-9.33-11.86a1.25,1.25,0,0,1-.31-2,9.72,9.72,0,0,0,3.14-7.88,9.84,9.84,0,0,0-9.28-9.08Z"/><path class="cls-1" d="M144.47,9.52h.37a7.56,7.56,0,0,1,7.09,6.94,7.43,7.43,0,0,1-2.4,6,3.5,3.5,0,0,0-1.09,3.06,3.57,3.57,0,0,0,1.92,2.69c.86.44,1.69.81,2.42,1.13,3.64,1.61,5.29,2.35,5.67,8.79l-27.94,0c.36-6.46,2-7.2,5.65-8.81.73-.32,1.56-.69,2.42-1.13a3.52,3.52,0,0,0,1.9-2.65,3.6,3.6,0,0,0-1.11-3.14A7.37,7.37,0,0,1,137,17a7.48,7.48,0,0,1,7.48-7.48m0-2.3a9.78,9.78,0,0,0-6.67,16.93,1.25,1.25,0,0,1-.26,2.05c-5.14,2.6-8.82,2.52-9.32,11.86a2.26,2.26,0,0,0,2.26,2.41h28a2.27,2.27,0,0,0,2.27-2.41c-.5-9.34-4.18-9.26-9.32-11.86a1.24,1.24,0,0,1-.31-2,9.77,9.77,0,0,0-6.14-17Z"/><path class="cls-1" d="M25.15,204.12h.37a7.56,7.56,0,0,1,7.09,6.94,7.45,7.45,0,0,1-2.4,6,3.55,3.55,0,0,0,.82,5.75c.87.44,1.7.81,2.43,1.13,3.63,1.61,5.29,2.35,5.67,8.8H11.19c.35-6.46,2-7.2,5.64-8.81.74-.32,1.57-.69,2.43-1.13a3.52,3.52,0,0,0,1.9-2.65,3.57,3.57,0,0,0-1.11-3.13,7.38,7.38,0,0,1-2.38-5.47,7.49,7.49,0,0,1,7.48-7.48m0-2.3a9.77,9.77,0,0,0-6.67,16.93,1.26,1.26,0,0,1-.26,2.05c-5.14,2.6-8.82,2.52-9.33,11.87a2.28,2.28,0,0,0,2.27,2.41h28a2.29,2.29,0,0,0,2.27-2.42c-.51-9.34-4.18-9.26-9.33-11.86a1.24,1.24,0,0,1-.3-2,9.75,9.75,0,0,0,3.14-7.88,9.87,9.87,0,0,0-9.28-9.09Z"/><path class="cls-1" d="M144.47,275.54h.37a7.56,7.56,0,0,1,7.09,6.95,7.4,7.4,0,0,1-2.4,6,3.54,3.54,0,0,0,.83,5.75c.86.44,1.69.81,2.42,1.14,3.64,1.61,5.29,2.34,5.67,8.79H130.51c.36-6.46,2-7.19,5.65-8.8.73-.33,1.56-.7,2.42-1.13a3.56,3.56,0,0,0,.79-5.79A7.37,7.37,0,0,1,137,283a7.49,7.49,0,0,1,7.48-7.49m0-2.3a9.78,9.78,0,0,0-6.67,16.93,1.25,1.25,0,0,1-.26,2.05c-5.14,2.6-8.82,2.52-9.32,11.87a2.27,2.27,0,0,0,2.26,2.41h28a2.28,2.28,0,0,0,2.27-2.42c-.5-9.34-4.18-9.26-9.32-11.86a1.23,1.23,0,0,1-.31-2,9.78,9.78,0,0,0-6.14-17Z"/><path class="cls-1" d="M261.54,83.48h.37A7.56,7.56,0,0,1,269,90.43a7.43,7.43,0,0,1-2.4,6,3.5,3.5,0,0,0-1.09,3.06,3.57,3.57,0,0,0,1.92,2.69c.86.44,1.69.81,2.42,1.13,3.64,1.61,5.29,2.35,5.67,8.79l-27.94,0c.36-6.46,2-7.2,5.65-8.81.73-.32,1.56-.69,2.42-1.13a3.55,3.55,0,0,0,1.91-2.65,3.64,3.64,0,0,0-1.12-3.14A7.37,7.37,0,0,1,254.06,91a7.48,7.48,0,0,1,7.48-7.48m0-2.3a9.78,9.78,0,0,0-6.67,16.93,1.25,1.25,0,0,1-.26,2c-5.14,2.6-8.82,2.52-9.32,11.86a2.26,2.26,0,0,0,2.26,2.41h28a2.27,2.27,0,0,0,2.27-2.41c-.5-9.34-4.18-9.26-9.32-11.86a1.24,1.24,0,0,1-.31-2,9.77,9.77,0,0,0-6.14-17Z"/><path class="cls-1" d="M265.62,204.12H266a7.57,7.57,0,0,1,7.1,6.94,7.48,7.48,0,0,1-2.4,6,3.49,3.49,0,0,0-1.1,3.06,3.55,3.55,0,0,0,1.92,2.69c.86.44,1.69.81,2.43,1.13,3.63,1.61,5.29,2.35,5.67,8.8H251.67c.35-6.46,2-7.2,5.64-8.81.73-.32,1.56-.69,2.42-1.13a3.55,3.55,0,0,0,1.91-2.65,3.61,3.61,0,0,0-1.12-3.13,7.41,7.41,0,0,1-2.38-5.47,7.49,7.49,0,0,1,7.48-7.48m0-2.3A9.78,9.78,0,0,0,259,218.75a1.26,1.26,0,0,1-.25,2.05c-5.15,2.6-8.82,2.52-9.33,11.87a2.28,2.28,0,0,0,2.27,2.41h28a2.29,2.29,0,0,0,2.27-2.42c-.51-9.34-4.19-9.26-9.33-11.86a1.24,1.24,0,0,1-.31-2,9.72,9.72,0,0,0,3.14-7.88,9.85,9.85,0,0,0-9.28-9.09Z"/><path class="cls-1" d="M145.52,136.69a23.77,23.77,0,1,1-23.78,23.77,23.77,23.77,0,0,1,23.78-23.77m0-2.31a26.08,26.08,0,1,0,26.07,26.08,26.11,26.11,0,0,0-26.07-26.08Z"/></g></g></svg>