<svg xmlns="http://www.w3.org/2000/svg" viewBox="0 0 355.77 296.71"><defs><style>.cls-1{fill:#f28a24;}</style></defs><title>symbol_investor_yellow</title><g id="Layer_2" data-name="Layer 2"><g id="Layer_1-2" data-name="Layer 1"><path class="cls-1" d="M192.59,88.83c4.21,0,7.62,3,7.62,6.68v14.16l.5.16A52.42,52.42,0,0,1,222,123a5.71,5.71,0,0,1,2.57,5,6.59,6.59,0,0,1-2.85,5.26,8.33,8.33,0,0,1-5.13,1.5,7.6,7.6,0,0,1-5.14-2,44.49,44.49,0,0,0-11.19-8v46.08c2.15.73,4.19,1.48,6.06,2.25a40.66,40.66,0,0,1,15.82,11.26q6.14,7.26,6.14,19.27,0,16.27-14.83,25.9a55.31,55.31,0,0,1-13.19,6.22v17.61c0,3.69-3.41,6.69-7.62,6.69s-7.62-3-7.62-6.69V238.71q-4,.38-8.36.38c-2.21,0-4.37-.09-6.49-.23v14.42c0,3.69-3.41,6.69-7.62,6.69s-7.62-3-7.62-6.69V236.51a66.24,66.24,0,0,1-33.59-20.19c-1.53-2.17-2.28-4-2.28-5.51,0-2.17,1.23-3.84,3.71-5a6.62,6.62,0,0,1,4.56-1.51,9.3,9.3,0,0,1,6.27,2.51,54.09,54.09,0,0,0,21.33,15.33V173.25a85.06,85.06,0,0,1-15.34-7.36q-13.41-8.38-13.4-24.65a28.52,28.52,0,0,1,6.56-18.4,42.71,42.71,0,0,1,17.82-12.64c1.41-.56,2.88-1.06,4.36-1.52V95.51c0-3.69,3.41-6.68,7.62-6.68s7.62,3,7.62,6.68v10.41c1.93-.14,3.9-.22,5.92-.22a74.45,74.45,0,0,1,8.93.55V95.51c0-3.69,3.41-6.68,7.62-6.68M185,166.5V119.78A61.28,61.28,0,0,0,174.9,119c-1.64,0-3.23.09-4.78.21v43.67q5.31,1.51,11.62,2.92c1.1.24,2.17.49,3.23.74m-30.09-9.2V123c-1,.47-2,1-2.94,1.51A17.89,17.89,0,0,0,142.39,141q.57,10,10.41,15.26c.66.36,1.36.7,2.08,1.05m23.44,69A59.7,59.7,0,0,0,185,226V181.62q-3.91-1.1-8.36-2.09-3.36-.75-6.49-1.56v47.89a72.76,72.76,0,0,0,8.2.47m21.89-4.65c.65-.32,1.3-.63,1.92-1q10.13-5.64,10.12-16.4,0-10.5-9.4-15.76-1.26-.71-2.64-1.38v34.52M192.59,86.45c-5.51,0-10,4.07-10,9.06v8.1q-3.32-.28-6.56-.29c-1.16,0-2.34,0-3.55.08V95.51c0-5-4.48-9.06-10-9.06s-10,4.07-10,9.06V107c-1,.35-2,.7-2.87,1a45.12,45.12,0,0,0-18.79,13.35,31,31,0,0,0-7.09,19.89c0,11.67,4.89,20.64,14.52,26.66a85.39,85.39,0,0,0,14.23,7v43.63a52.48,52.48,0,0,1-17.16-13.26l-.11-.13-.12-.11a11.69,11.69,0,0,0-7.84-3.09,9.08,9.08,0,0,0-5.86,1.87c-4,2-4.79,4.89-4.79,7s.89,4.28,2.71,6.87l.09.12.09.11a68.79,68.79,0,0,0,33,20.42v14.95c0,5,4.48,9.06,10,9.06s10-4.06,10-9.06V241.37c1.45.06,2.81.09,4.12.09,2,0,4-.06,6-.18v12c0,5,4.48,9.06,10,9.06s10-4.06,10-9.06V237.37a57,57,0,0,0,12.11-5.92c10.56-6.86,15.91-16.25,15.91-27.9,0-8.54-2.25-15.54-6.69-20.8a43.19,43.19,0,0,0-16.74-11.93c-1.39-.57-2.93-1.16-4.59-1.74V128.76a41.9,41.9,0,0,1,7.15,5.66l.05.05.05,0a9.92,9.92,0,0,0,6.71,2.59,10.64,10.64,0,0,0,6.55-2l0,0,0,0a8.9,8.9,0,0,0,3.75-7.12,8.08,8.08,0,0,0-3.39-6.82A55.06,55.06,0,0,0,202.58,108V95.51c0-5-4.48-9.06-10-9.06Zm-20.1,35c.84,0,1.63-.06,2.41-.06a59.4,59.4,0,0,1,7.7.49v41.69l-.35-.08c-3.45-.77-6.72-1.57-9.76-2.41V121.4Zm-27.72,19.52a15.42,15.42,0,0,1,7.74-14v26.45c-4.89-3-7.42-7.12-7.74-12.43Zm27.72,82.79V181l3.6.84c2.25.5,4.43,1,6.51,1.58V223.8c-1.4.1-2.83.15-4.28.15-1.92,0-3.87-.08-5.83-.24Zm30.09-6.06V191.14a14.48,14.48,0,0,1,7.3,13.16,15.08,15.08,0,0,1-7.3,13.35Z"/><path class="cls-1" d="M178,2.38c.7,0,1.41,0,2.11,0,30.38.93,56.91,21.93,65.37,51.37h63.22V294.34H48.22V53.78h62.13c8.73-30.27,36.52-51.4,67.6-51.4m-50.68,51.4H228.06c-6.84-20.64-26.42-35.23-48.76-35.9l-1.58,0c-22.87,0-43.38,14.69-50.45,35.92M178,0c-31.53,0-59.8,21-69.37,51.4H45.84V296.71H311V51.4H247.2a73.36,73.36,0,0,0-24.76-35.86A71.61,71.61,0,0,0,180.13,0c-.72,0-1.45,0-2.18,0ZM130.69,51.4c7.64-18.5,26.51-31.16,47-31.17.5,0,1,0,1.51,0A50.69,50.69,0,0,1,224.65,51.4Z"/><path class="cls-1" d="M35.63,53.78V294.34h-20A13.3,13.3,0,0,1,2.38,281V67.08a13.29,13.29,0,0,1,13.3-13.3h20M38,51.4H15.68A15.7,15.7,0,0,0,0,67.08V281a15.69,15.69,0,0,0,15.68,15.68H38V51.4Z"/><path class="cls-1" d="M340.09,53.78a13.3,13.3,0,0,1,13.31,13.3V281a13.31,13.31,0,0,1-13.31,13.31H321.23V53.78h18.86m0-2.38H318.85V296.71h21.24A15.69,15.69,0,0,0,355.77,281V67.08A15.7,15.7,0,0,0,340.09,51.4Z"/></g></g></svg>