<svg xmlns="http://www.w3.org/2000/svg" viewBox="0 0 413.27 286.84"><defs><style>.cls-1,.cls-2,.cls-3{fill:none;stroke:#FF9A15;}.cls-1{stroke-miterlimit:10;stroke-width:1.89px;}.cls-2,.cls-3{stroke-linecap:round;stroke-linejoin:round;stroke-width:0.94px;}.cls-3{stroke-dasharray:5.03 5.03;}.cls-4{fill:#FF9A15;}</style></defs><g id="Layer_2" data-name="Layer 2"><g id="Layer_1-2" data-name="Layer 1"><rect class="cls-1" x="95.3" y="146.25" width="30.19" height="30.19" rx="1.52"/><polyline class="cls-2" points="102.85 172.67 99.07 172.67 99.07 168.89"/><line class="cls-3" x1="99.07" y1="163.86" x2="99.07" y2="156.31"/><polyline class="cls-2" points="99.07 153.8 99.07 150.02 102.85 150.02"/><line class="cls-3" x1="107.88" y1="150.02" x2="115.43" y2="150.02"/><polyline class="cls-2" points="117.94 150.02 121.72 150.02 121.72 153.8"/><line class="cls-3" x1="121.72" y1="158.83" x2="121.72" y2="166.38"/><polyline class="cls-2" points="121.72 168.89 121.72 172.67 117.94 172.67"/><line class="cls-3" x1="112.91" y1="172.67" x2="105.36" y2="172.67"/><polyline class="cls-1" points="110.39 165.12 106.62 165.12 106.62 161.34"/><polyline class="cls-1" points="106.62 161.34 106.62 157.57 110.39 157.57"/><polyline class="cls-1" points="110.39 157.57 114.17 157.57 114.17 161.34"/><polyline class="cls-1" points="114.17 161.34 114.17 165.12 110.39 165.12"/><rect class="cls-1" x="189.65" y="146.25" width="30.19" height="30.19" rx="1.52"/><polyline class="cls-2" points="197.2 172.67 193.43 172.67 193.43 168.89"/><line class="cls-3" x1="193.43" y1="163.86" x2="193.43" y2="156.31"/><polyline class="cls-2" points="193.43 153.8 193.43 150.02 197.2 150.02"/><line class="cls-3" x1="202.23" y1="150.02" x2="209.78" y2="150.02"/><polyline class="cls-2" points="212.3 150.02 216.07 150.02 216.07 153.8"/><line class="cls-3" x1="216.07" y1="158.83" x2="216.07" y2="166.38"/><polyline class="cls-2" points="216.07 168.89 216.07 172.67 212.3 172.67"/><line class="cls-3" x1="207.27" y1="172.67" x2="199.72" y2="172.67"/><polyline class="cls-1" points="204.75 165.12 200.97 165.12 200.97 161.34"/><polyline class="cls-1" points="200.97 161.34 200.97 157.57 204.75 157.57"/><polyline class="cls-1" points="204.75 157.57 208.52 157.57 208.52 161.34"/><polyline class="cls-1" points="208.52 161.34 208.52 165.12 204.75 165.12"/><rect class="cls-1" x="287.78" y="146.25" width="30.19" height="30.19" rx="1.52"/><polyline class="cls-2" points="295.33 172.67 291.56 172.67 291.56 168.89"/><line class="cls-3" x1="291.56" y1="163.86" x2="291.56" y2="156.31"/><polyline class="cls-2" points="291.56 153.8 291.56 150.02 295.33 150.02"/><line class="cls-3" x1="300.36" y1="150.02" x2="307.91" y2="150.02"/><polyline class="cls-2" points="310.43 150.02 314.2 150.02 314.2 153.8"/><line class="cls-3" x1="314.2" y1="158.83" x2="314.2" y2="166.38"/><polyline class="cls-2" points="314.2 168.89 314.2 172.67 310.43 172.67"/><line class="cls-3" x1="305.39" y1="172.67" x2="297.85" y2="172.67"/><polyline class="cls-1" points="302.88 165.12 299.1 165.12 299.1 161.34"/><polyline class="cls-1" points="299.1 161.34 299.1 157.57 302.88 157.57"/><polyline class="cls-1" points="302.88 157.57 306.65 157.57 306.65 161.34"/><polyline class="cls-1" points="306.65 161.34 306.65 165.12 302.88 165.12"/><path class="cls-4" d="M338.29,15.1H71.21A35.39,35.39,0,0,0,35.85,50.45v54.28h1.89V50.45A33.51,33.51,0,0,1,71.21,17H338.29a33.51,33.51,0,0,1,33.47,33.47v54.28h1.88V50.45A35.39,35.39,0,0,0,338.29,15.1Z"/><path class="cls-4" d="M22.65,50.45A48.61,48.61,0,0,1,71.21,1.89H338.29a48.61,48.61,0,0,1,48.56,48.56v54.28h1.89V50.45A50.5,50.5,0,0,0,338.29,0H71.21A50.5,50.5,0,0,0,20.76,50.45v54.28h1.89Z"/><rect class="cls-4" x="35.85" y="116.56" width="1.89" height="158.09"/><rect class="cls-4" x="20.76" y="116.56" width="1.89" height="158.09"/><rect class="cls-4" x="386.85" y="116.56" width="1.89" height="158.16"/><rect class="cls-4" x="371.76" y="116.56" width="1.89" height="158.16"/><rect class="cls-4" x="379.3" y="116.56" width="1.89" height="158.96"/><path class="cls-4" d="M30.19,50.45a41.06,41.06,0,0,1,41-41H338.29a41,41,0,0,1,41,41v54.28h1.89V50.45a42.94,42.94,0,0,0-42.9-42.9H71.21a42.94,42.94,0,0,0-42.9,42.9v54.28h1.88Z"/><rect class="cls-4" x="28.31" y="116.56" width="1.89" height="158.96"/><path class="cls-4" d="M86.67,82.07a1.31,1.31,0,0,1,.14.59v22.07h1.88V82.66a3.08,3.08,0,0,0-.34-1.43l-3.7-7.44a1.29,1.29,0,0,1,.06-1.29,1.73,1.73,0,0,1,1.51-.79h48.35a1.73,1.73,0,0,1,1.51.79,1.29,1.29,0,0,1,.06,1.29l-3.7,7.43a3.14,3.14,0,0,0-.34,1.44v22.07H134V82.66a1.31,1.31,0,0,1,.14-.59l3.71-7.44a3.21,3.21,0,0,0-.15-3.13,3.61,3.61,0,0,0-3.11-1.68H86.22a3.61,3.61,0,0,0-3.11,1.68A3.21,3.21,0,0,0,83,74.63Z"/><path class="cls-4" d="M132.1,116.56V235.78c0,11.5-9.74,20.86-21.71,20.86s-21.7-9.36-21.7-20.86V116.56H86.81V235.78c0,12.55,10.58,22.75,23.58,22.75S134,248.33,134,235.78V116.56Z"/><path class="cls-4" d="M181,82.07a1.31,1.31,0,0,1,.14.59v22.07h1.89V82.66a3.2,3.2,0,0,0-.34-1.43L179,73.79a1.29,1.29,0,0,1,.07-1.29,1.71,1.71,0,0,1,1.5-.79h48.35a1.72,1.72,0,0,1,1.51.79,1.27,1.27,0,0,1,.06,1.29l-3.7,7.43a3.14,3.14,0,0,0-.34,1.44v22.07h1.89V82.66a1.31,1.31,0,0,1,.14-.59l3.7-7.44A3.2,3.2,0,0,0,232,71.5a3.64,3.64,0,0,0-3.12-1.68H180.57a3.62,3.62,0,0,0-3.11,1.68,3.2,3.2,0,0,0-.14,3.13Z"/><path class="cls-4" d="M226.45,116.56V235.78c0,11.5-9.74,20.86-21.7,20.86s-21.7-9.36-21.7-20.86V116.56h-1.89V235.78c0,12.55,10.58,22.75,23.59,22.75s23.59-10.2,23.59-22.75V116.56Z"/><path class="cls-4" d="M279.15,82.07a1.31,1.31,0,0,1,.14.59v22.07h1.89V82.66a3.2,3.2,0,0,0-.34-1.43l-3.71-7.44a1.29,1.29,0,0,1,.07-1.29,1.71,1.71,0,0,1,1.5-.79h48.35a1.72,1.72,0,0,1,1.51.79,1.27,1.27,0,0,1,.06,1.29l-3.7,7.43a3.14,3.14,0,0,0-.34,1.44v22.07h1.89V82.66a1.2,1.2,0,0,1,.14-.59l3.7-7.44a3.18,3.18,0,0,0-.15-3.13,3.61,3.61,0,0,0-3.11-1.68H278.7a3.62,3.62,0,0,0-3.11,1.68,3.23,3.23,0,0,0-.15,3.13Z"/><path class="cls-4" d="M324.58,116.56V235.78c0,11.5-9.74,20.86-21.7,20.86s-21.7-9.36-21.7-20.86V116.56h-1.89V235.78c0,12.55,10.58,22.75,23.59,22.75s23.59-10.2,23.59-22.75V116.56Z"/><rect class="cls-1" x="12.25" y="107.94" width="385" height="5.4" rx="2.7"/><path class="cls-1" d="M10.16,274.57h393a9.21,9.21,0,0,1,9.21,9.21v2.11a0,0,0,0,1,0,0H.94a0,0,0,0,1,0,0v-2.11A9.21,9.21,0,0,1,10.16,274.57Z"/></g></g></svg>