<?xml version="1.0" encoding="utf-8"?>
<!-- Generator: Adobe Illustrator 24.2.1, SVG Export Plug-In . SVG Version: 6.00 Build 0)  -->
<svg version="1.1" id="Layer_1" xmlns="http://www.w3.org/2000/svg" xmlns:xlink="http://www.w3.org/1999/xlink" x="0px" y="0px"
	 viewBox="0 0 237 310.8" style="enable-background:new 0 0 237 310.8;" xml:space="preserve">
<style type="text/css">
	.st0{fill:#FF9A15;}
</style>
<g id="Layer_2_1_">
	<g id="Layer_1-2">
		<path class="st0" d="M225.3,310.8H11.7C5.2,310.8,0,305.5,0,299c0,0,0,0,0,0V11.7C0,5.3,5.3,0,11.7,0h213.6
			c6.5,0,11.7,5.3,11.7,11.7V299C237,305.5,231.8,310.8,225.3,310.8C225.3,310.8,225.3,310.8,225.3,310.8z M11.7,1.5
			C6.1,1.5,1.5,6.1,1.5,11.7c0,0,0,0,0,0V299c0,5.6,4.6,10.2,10.2,10.2c0,0,0,0,0,0h213.6c5.6,0,10.2-4.6,10.2-10.2l0,0V11.7
			c0-5.6-4.6-10.2-10.2-10.2L11.7,1.5z"/>
		<path class="st0" d="M225.3,306.2H11.7c-3.9,0-7.1-3.2-7.1-7.2c0,0,0,0,0,0V11.7c0-3.9,3.2-7.1,7.1-7.1h213.6
			c3.9,0,7.1,3.2,7.1,7.1V299C232.5,302.9,229.3,306.2,225.3,306.2C225.3,306.2,225.3,306.2,225.3,306.2z M11.7,6.1
			c-3.1,0-5.6,2.5-5.6,5.6V299c0,3.1,2.5,5.6,5.6,5.6h213.6c3.1,0,5.6-2.5,5.6-5.6V11.7c0-3.1-2.5-5.6-5.6-5.6l0,0L11.7,6.1z"/>
		<rect x="51.2" y="27.2" class="st0" width="131.5" height="1.5"/>
		<polygon class="st0" points="188.9,27.2 188.9,28.7 215.6,28.7 215.6,244.8 177.3,283.1 19.9,283.1 19.9,28.7 45.1,28.7 
			45.1,27.2 18.4,27.2 18.4,284.6 178,284.6 217.1,245.4 217.1,27.2 		"/>
		<path class="st0" d="M123.1,48h-15.3c-2.3,0-4.2-1.9-4.2-4.2c0-1.1-0.9-1.9-1.9-1.9H51.2c-2.3,0-4.2-1.9-4.2-4.2c0,0,0,0,0-0.1
			V22.4c0-2.3,1.9-4.2,4.2-4.2h9.2v2.3h-9.2c-1,0-1.9,0.8-1.9,1.9c0,0,0,0,0,0v15.3c0,1.1,0.9,1.9,1.9,1.9h50.5
			c2.3,0,4.2,1.9,4.2,4.2c0,1.1,0.9,1.9,1.9,1.9l0,0h15.3c1,0,1.9-0.9,1.9-1.9c0-2.3,1.9-4.2,4.2-4.2h53.5c1.1,0,1.9-0.9,1.9-1.9
			V22.4c0-1.1-0.9-1.9-1.9-1.9l0,0h-9.2v-2.3h9.2c2.3,0,4.2,1.9,4.2,4.2v15.3c0,2.3-1.9,4.2-4.2,4.2h-53.5c-1.1,0-1.9,0.9-1.9,1.9
			C127.3,46.1,125.5,48,123.1,48C123.1,48,123.1,48,123.1,48z"/>
		<path class="st0" d="M172.8,26.9h-1.5V15.7c-0.1-1.9-1.6-3.3-3.5-3.3H64.6c-1.9,0-3.4,1.4-3.5,3.3v11.2h-1.5V15.7
			c0-2.7,2.3-4.9,5-4.8h103.1c2.7,0,4.9,2.1,5,4.8L172.8,26.9z"/>
		<rect x="51.2" y="213.9" class="st0" width="90.7" height="2.3"/>
		<rect x="51.2" y="174.1" class="st0" width="136.1" height="2.3"/>
		<rect x="51.2" y="192.5" class="st0" width="136.1" height="2.3"/>
		<rect x="51.2" y="137.4" class="st0" width="136.1" height="2.3"/>
		<rect x="51.2" y="155.8" class="st0" width="136.1" height="2.3"/>
		<rect x="51.2" y="97.7" class="st0" width="136.1" height="2.3"/>
		<rect x="51.2" y="116" class="st0" width="136.1" height="2.3"/>
		<polygon class="st0" points="178.1,283.5 176.6,283.5 176.6,242.9 217.1,242.9 217.1,244.4 178.1,244.4 		"/>
	</g>
</g>
</svg>
