<?xml version="1.0" encoding="utf-8"?>
<!-- Generator: Adobe Illustrator 24.2.1, SVG Export Plug-In . SVG Version: 6.00 Build 0)  -->
<svg version="1.1" id="Layer_1" xmlns="http://www.w3.org/2000/svg" xmlns:xlink="http://www.w3.org/1999/xlink" x="0px" y="0px"
	 viewBox="0 0 38.4 36.5" style="enable-background:new 0 0 38.4 36.5;" xml:space="preserve">
<style type="text/css">
	.st0{fill:none;stroke:#F18601;stroke-width:0.75;stroke-linecap:round;stroke-linejoin:round;}
	.st1{fill:none;stroke:#F18601;stroke-width:0.75;stroke-miterlimit:10;}
</style>
<g id="Layer_2_1_">
	<g id="Layer_1-2">
		<polygon class="st0" points="7.7,15.5 10.9,14.4 11.5,11.1 9,8.9 5.8,10 5.2,13.3 		"/>
		<polygon class="st0" points="3,20.8 6.1,19.7 6.7,16.4 4.2,14.2 1,15.3 0.4,18.6 		"/>
		<line class="st0" x1="2.9" y1="20.7" x2="2.1" y2="24.1"/>
		<line class="st0" x1="9" y1="8.9" x2="9.9" y2="4.9"/>
		<line class="st0" x1="5.8" y1="10" x2="2.7" y2="7.5"/>
		<path class="st1" d="M21.1,0.4c0.4,0,0.7,0.4,0.7,0.8c0,0,0,0.1,0,0.1c-0.3,0.9-0.4,1.8-0.4,2.7v5.8c0,2.1,0.6,4.2,1.6,6.1
			l5.6,9.7c1.9,3.3,0.8,7.6-2.6,9.6c-1.1,0.6-2.3,0.9-3.5,0.9h-7.7c-3.9,0-7-3.1-7-7c0-1.2,0.3-2.5,0.9-3.5l5.6-9.7
			c1.1-1.9,1.6-4,1.6-6.1V4c0-0.9-0.1-1.8-0.4-2.7c-0.2-0.5,0.2-0.9,0.7-0.9L21.1,0.4z"/>
		<path class="st1" d="M24.8,21.6l2.7,4.6c1,1.8,1,3.9,0,5.7c-1,1.8-2.9,2.9-4.9,2.9h-7.7c-2,0-3.9-1.1-4.9-2.9c-1-1.8-1-3.9,0-5.7
			l2.7-4.7L24.8,21.6z"/>
		<path class="st1" d="M32.2,33.1V12.3c0.1-0.9-0.1-1.8-0.4-2.7c-0.2-0.3,0-0.8,0.3-0.9c0.1,0,0.2-0.1,0.3-0.1h4.9
			c0.4,0,0.7,0.4,0.7,0.8c0,0,0,0.1,0,0.1c-0.3,0.9-0.4,1.8-0.4,2.7V33c0,1.5-1.2,2.7-2.7,2.7c0,0,0,0,0,0l0,0
			C33.4,35.7,32.2,34.5,32.2,33.1z"/>
		<path class="st1" d="M34.9,34.4c-0.8,0-1.4-0.6-1.4-1.3c0,0,0,0,0,0V19h2.8v14.1C36.2,33.8,35.6,34.3,34.9,34.4z"/>
	</g>
</g>
</svg>
