<svg xmlns="http://www.w3.org/2000/svg" viewBox="0 0 411.46 253.74"><defs><style>.cls-1{fill:#f28a24;}</style></defs><title>symbol_handshake_orange</title><g id="Layer_2" data-name="Layer 2"><g id="Layer_1-2" data-name="Layer 1"><path class="cls-1" d="M69.33,2.76c.89,0,2,.59,3.85,1.67Q86.31,12.23,99.45,20a3.08,3.08,0,0,1,1.3,4.49q-9.48,16.21-19,32.42c-6.68,11.45-13.3,22.92-20,34.36s-13.38,22.89-20.07,34.33c-1.74,3-3.5,6-5.2,9-.81,1.44-1.62,2.14-2.68,2.14a4.81,4.81,0,0,1-2.3-.79c-7.94-4.66-15.9-9.3-23.79-14.05a35,35,0,0,1-4.92-3.95,1.81,1.81,0,0,1-.5-1.57A22.76,22.76,0,0,1,4,112.69c.08-.15,2.48-4.36,3.61-6.31q9.57-16.6,19.26-33.14c6.37-10.91,12.8-21.78,19.17-32.69Q56,23.47,65.93,6.31c1.42-2.46,2.19-3.55,3.4-3.55m0-2.3h0c-2.68,0-4,2.28-5.39,4.7-6.17,10.71-12.67,21.9-19.86,34.23Q39.05,48,34,56.6q-4.55,7.74-9.08,15.47c-5.75,9.84-12.53,21.48-19.26,33.16-1.09,1.88-3.54,6.16-3.64,6.35a25.12,25.12,0,0,0-1.85,4,4.06,4.06,0,0,0,1.16,4l.67.6a30.44,30.44,0,0,0,4.58,3.6c6.36,3.83,12.87,7.65,19.16,11.33l4.66,2.73A6.77,6.77,0,0,0,33.85,139c2.82,0,4.22-2.49,4.68-3.31,1.37-2.42,2.81-4.86,4.19-7.23l1-1.7,7.15-12.22q6.47-11.06,12.92-22.11,4.92-8.44,9.82-16.89Q78.68,66.76,83.76,58q5.56-9.53,11.15-19l7.83-13.38A5.39,5.39,0,0,0,100.62,18l-6.79-4c-6.39-3.77-13-7.66-19.47-11.51-2-1.18-3.49-2-5-2Z"/><path class="cls-1" d="M123.9,153.15a13.84,13.84,0,0,1,6.78,1.91c5.28,3,8.31,7.52,8.41,13.58.06,3-1.41,5.39-3.2,7.68-4.11,5.27-8.22,10.53-12.26,15.84-3.35,4.38-6.56,8.86-9.93,13.23-5.17,7-11.21,8.78-13.39,8.78a2.27,2.27,0,0,1-.5,0c-7.15-1.47-11.59-5.75-13.25-12.52a10.64,10.64,0,0,1,2-9.23c8.83-11.57,17.6-23.19,26.45-34.75a11,11,0,0,1,8.87-4.47m0-2.3h0a13.25,13.25,0,0,0-10.7,5.37c-5.29,6.92-10.64,14-15.82,20.78L86.75,191a12.85,12.85,0,0,0-2.42,11.16c1.87,7.68,7.07,12.6,15,14.24a4.68,4.68,0,0,0,1,.09c2.79,0,9.56-2,15.23-9.7,1.86-2.41,3.7-4.89,5.48-7.29,1.45-1.95,2.94-4,4.44-5.93,3.72-4.88,7.56-9.8,11.27-14.57l1-1.24c1.87-2.39,3.76-5.35,3.7-9.14-.12-6.68-3.43-12-9.58-15.54a16.25,16.25,0,0,0-7.92-2.21Z"/><path class="cls-1" d="M147.3,180.94a14.44,14.44,0,0,1,1.6.09c6.86.81,11.26,4.77,13.44,10.88a11,11,0,0,1-1.6,10.85c-6.86,9-13.64,18.12-20.51,27.16a10.49,10.49,0,0,1-8.48,4.22,11.64,11.64,0,0,1-3-.4c-6.21-1.62-10.22-5.54-11.86-11.41-1.26-4.52.07-8.7,3.46-12.12.49-.49,17.18-22.83,19.95-26.2a8.7,8.7,0,0,1,7-3.07m0-2.3h0a11,11,0,0,0-8.78,3.91c-1.66,2-8.05,10.48-13.19,17.3-3,4-6.2,8.21-6.68,8.8-4,4.07-5.42,9.15-4,14.3,1.87,6.7,6.53,11.21,13.49,13a14.27,14.27,0,0,0,3.59.47,12.87,12.87,0,0,0,10.32-5.13c3.34-4.4,6.71-8.88,10-13.21,3.45-4.58,7-9.31,10.54-13.94a13.26,13.26,0,0,0,1.92-13c-2.57-7.23-7.87-11.52-15.33-12.39a15,15,0,0,0-1.87-.11Z"/><path class="cls-1" d="M172.24,208.3a17.64,17.64,0,0,1,3.83.47c6.51,1.46,11.83,8.26,11.84,15.17a11.34,11.34,0,0,1-2.28,6.15c-4.34,5.67-8.76,11.28-13,17a10.6,10.6,0,0,1-8.74,4.35,13.71,13.71,0,0,1-4.25-.7,15.38,15.38,0,0,1-10.42-10.49c-1.05-3.47-1-6.91,1.51-10.11,4.49-5.75,8.72-11.69,13.13-17.51a10,10,0,0,1,8.41-4.33m0-2.3h0A12.22,12.22,0,0,0,162,211.24c-1.81,2.39-3.62,4.84-5.37,7.21-2.51,3.39-5.1,6.9-7.73,10.27s-3.32,7.54-1.9,12.2a17.63,17.63,0,0,0,11.91,12,15.94,15.94,0,0,0,5,.81,12.91,12.91,0,0,0,10.59-5.27c2.74-3.68,5.6-7.39,8.37-11,1.55-2,3.1-4,4.63-6a13.39,13.39,0,0,0,2.75-7.42v-.12c0-7.92-6.12-15.73-13.64-17.42a19.82,19.82,0,0,0-4.33-.52Z"/><path class="cls-1" d="M80.84,149.91a14.91,14.91,0,0,1,4.11.62c5.89,1.7,9.39,5.81,11,11.46a2.62,2.62,0,0,1,.12.62c.05.78.08,1.56.12,2.35.35,3.42-1.55,6-3.52,8.49-2.47,3.14-4.89,6.31-7.36,9.45a9.6,9.6,0,0,1-7.9,3.79,15.27,15.27,0,0,1-3-.31c-7.26-1.44-13-8.52-12.53-15.64a12.8,12.8,0,0,1,3.11-7.07c2.47-3.21,5-6.39,7.43-9.61a10.08,10.08,0,0,1,8.35-4.15m0-2.3h0a12.43,12.43,0,0,0-10.19,5c-1.49,2-3,3.91-4.51,5.86-1,1.25-1.94,2.49-2.91,3.75a15,15,0,0,0-3.58,8.33c-.52,8.27,5.93,16.36,14.38,18a18,18,0,0,0,3.41.35,11.81,11.81,0,0,0,9.7-4.67q2.08-2.64,4.14-5.31c1.07-1.38,2.15-2.77,3.23-4.14,2-2.53,4.44-5.66,4-10.08l0-.57-.09-1.76a5.63,5.63,0,0,0-.21-1.11c-1.94-6.7-6.3-11.21-12.6-13a17.21,17.21,0,0,0-4.75-.71Z"/><path class="cls-1" d="M101.13,40.2c3.24,1.86,6.42,3.58,9.5,5.46,4.16,2.55,8.86,3.57,13.55,4.47,6.26,1.18,12.6,2,19.22,3-1,1.31-1.8,2.51-2.68,3.7-6.62,9-13.2,18-18.84,27.55a25.3,25.3,0,0,0-3.2,16.94c.55,3.7,4.5,7.42,8.37,8.25a32.27,32.27,0,0,0,6.67.68A46.88,46.88,0,0,0,144.29,109c13-3,23.24-10.29,32-19.69,2.77-3,5.18-6.23,7.78-9.33a2.92,2.92,0,0,1,1.23-.92c4.5-1.43,9-2.85,13.56-4.19a2,2,0,0,1,.62-.08,2.67,2.67,0,0,1,1.22.28c15.88,8.41,31.91,16.57,47.54,25.41,9.77,5.52,19,11.93,28.32,18.18q13.23,8.89,26.09,18.31,13.27,9.75,26.14,20c3.75,3,6.21,6.93,5.83,12-.44,5.86-4.8,12.1-12.18,12.74-.84.07-1.69.1-2.54.1a29.39,29.39,0,0,1-6.31-.67c-2-.45-3.73-2-5.57-3.06l-24-13.81c-.16-.09-.31-.2-.47-.31h0l-6.75-3.91-.19-.1c-9-5.32-18.06-10.51-27.12-15.71a4.7,4.7,0,0,0-2.32-.64,4,4,0,0,0-1.83,7.51c5.42,3.15,10.86,6.3,16.27,9.46h0l16,9.31h0c8.81,5.06,17.59,10.17,26.4,15.23a3.66,3.66,0,0,1,2.11,3.36c.14,5.33-1.06,10.13-5.37,13.85-2.39,2.07-5.38,2.49-8.37,3l-.32,0a13.69,13.69,0,0,1-3.35.41c-3.93,0-7.41-1.7-10.92-3.76-8.67-5.1-17.55-9.88-26.28-14.88l-4.41-2.43v0l-6.87-3.82c-2.79-1.55-5.57-3.13-8.38-4.64a4.25,4.25,0,0,0-5.64,1.47,4.09,4.09,0,0,0,1.57,5.47c7.34,4.12,14.7,8.2,22,12.32q14.1,7.89,28.16,15.84c.34.19.79.64.77,1-.34,5.19-1.35,10.16-5.79,13.74a12.27,12.27,0,0,1-7.43,2.31c-1,0-2,.07-3,.07a37,37,0,0,1-6.41-.49c-2.2-.39-4.24-1.7-6.32-2.66q-13.89-6.44-27.76-12.9c-2.82-1.31-5.62-2.67-8.47-3.91a4.46,4.46,0,0,0-1.78-.38,3.85,3.85,0,0,0-3.45,2.1,3.66,3.66,0,0,0,1.51,5.27c3.72,1.91,7.53,3.64,11.32,5.41q9.72,4.53,19.45,9,4.23,2,8.45,3.95a7.22,7.22,0,0,1,.87.68c-2.34,2.4-4.54,4.85-7,7.07-4.76,4.36-10.44,5.72-16.47,5.72-1.41,0-2.84-.08-4.28-.21A111.35,111.35,0,0,1,201,242.72c-3.51-1-7-2-10.53-3.06a12.36,12.36,0,0,1-1.48-.68c7.27-7.4,9.44-15.84,4.85-25.12-4.48-9-12.26-13.48-22.8-13.74,1.21-7.11-.79-13.47-5.55-19a23.85,23.85,0,0,0-18.37-8.37c0-2.42.19-4.76,0-7.07-.63-6.42-3.88-11.56-9-15.51a22.4,22.4,0,0,0-13.78-5,23.41,23.41,0,0,0-7.09,1.14,18.22,18.22,0,0,0-9.24,7c-1.29,1.78-2.65,3.51-4.14,5.46-2.82-8.05-8.15-13.61-16.34-16a23.43,23.43,0,0,0-6.64-1c-5.73,0-10.79,2.47-15,7.39-3.89-4.69-7.71-9.31-11.57-13.9-1.39-1.65-2.85-3.26-4.37-4.8a1.44,1.44,0,0,1-.25-2.06Q62.5,106.33,75.42,84.21,86.87,64.59,98.25,45c.92-1.59,1.89-3.14,2.88-4.75m-.81-3.11L99.16,39c-.31.52-.62,1-.93,1.52-.65,1.06-1.33,2.17-2,3.27L87,59.68Q80.24,71.36,73.43,83.05c-8.91,15.29-18,30.85-25.87,44.23a3.69,3.69,0,0,0,.61,4.84c1.4,1.42,2.82,3,4.24,4.67,2.76,3.28,5.57,6.66,8.28,9.92l3.28,4,1.74,2.09,1.78-2.06c3.76-4.37,8.23-6.59,13.28-6.59a21,21,0,0,1,6,.93C94,147.2,98.89,152,101.58,159.63l1.42,4,2.59-3.41,1.37-1.79c1-1.27,1.89-2.47,2.79-3.7a15.89,15.89,0,0,1,8.07-6.19,21.23,21.23,0,0,1,6.4-1A20.22,20.22,0,0,1,136.6,152c4.86,3.72,7.6,8.4,8.14,13.9a37.47,37.47,0,0,1,.06,4.52c0,.77,0,1.55,0,2.33v2.26l2.27,0a21.69,21.69,0,0,1,16.68,7.58,20,20,0,0,1,5,17.06l-.45,2.62,2.66.07c10,.25,16.76,4.33,20.78,12.46s2.54,15.4-4.42,22.48L185,239.68l2.93,1.38.58.28a6.9,6.9,0,0,0,1.23.53l6.33,1.84,4.2,1.22a113.07,113.07,0,0,0,21.84,4.44c1.6.14,3.07.21,4.48.21,7.48,0,13.38-2.07,18-6.32,1.72-1.58,3.34-3.27,4.9-4.92.71-.74,1.42-1.49,2.15-2.24l1.78-1.81-2-1.59-.42-.35a3.7,3.7,0,0,0-.91-.62q-4.22-2-8.46-4l-7-3.27q-6.19-2.87-12.4-5.76l-2.1-1c-3-1.41-6.15-2.86-9.13-4.4a1.37,1.37,0,0,1-.76-.78,1.83,1.83,0,0,1,.23-1.37,1.55,1.55,0,0,1,1.41-.87,2.27,2.27,0,0,1,.86.19c2,.89,4.1,1.86,6.09,2.79l2.33,1.09,8.72,4.06,19,8.84c.52.24,1,.51,1.59.79a18.84,18.84,0,0,0,5.3,2,38.6,38.6,0,0,0,6.81.53c.94,0,1.94,0,3.07-.07a14.6,14.6,0,0,0,8.79-2.82c5.23-4.22,6.29-10.14,6.64-15.38a3.54,3.54,0,0,0-1.94-3.1c-9.22-5.21-18.7-10.55-28.16-15.85l-9.91-5.54q-6.07-3.37-12.13-6.78a1.81,1.81,0,0,1-.83-1.13,1.5,1.5,0,0,1,.1-1.14,1.9,1.9,0,0,1,1.63-.88,2,2,0,0,1,.95.24c2,1.06,3.94,2.17,5.86,3.24l2.49,1.39,6.88,3.82,3.55,2v0l.86.47c3.61,2.07,7.33,4.15,10.92,6.16,5,2.82,10.26,5.73,15.31,8.69,4.17,2.45,7.82,4.09,12.08,4.09a16.19,16.19,0,0,0,3.77-.45l.27,0,.35-.06c3-.49,6.37-1,9.16-3.45,4.33-3.74,6.35-8.87,6.16-15.66a6,6,0,0,0-3.26-5.29q-6.79-3.89-13.56-7.81-6.24-3.61-12.49-7.21l-.34-.2-16-9.31-1.74-1h0l-10-5.83-4.51-2.62a1.68,1.68,0,0,1,.68-3.22,2.35,2.35,0,0,1,1.17.34l2.8,1.6c8,4.59,16.24,9.33,24.29,14.09l.26.14,6.71,3.88h0c.15.1.3.2.46.29q12,6.92,24,13.82c.49.28,1,.62,1.53,1a14.15,14.15,0,0,0,4.68,2.32,31.19,31.19,0,0,0,6.82.74c.91,0,1.83,0,2.73-.12,8.71-.75,13.78-8,14.28-14.86.41-5.4-1.84-10.11-6.68-14-8.47-6.78-17.29-13.53-26.22-20.09-8.45-6.19-17.25-12.37-26.16-18.36L274,114.12c-7.93-5.35-16.13-10.88-24.63-15.69C238,92,226.15,85.78,214.73,79.79Q208.25,76.4,201.8,73a5,5,0,0,0-2.3-.54,4.77,4.77,0,0,0-1.28.17c-4,1.19-8.32,2.53-13.6,4.21a5.12,5.12,0,0,0-2.3,1.63c-.92,1.1-1.82,2.23-2.69,3.31-1.6,2-3.25,4.06-5,5.93-9.54,10.2-19.63,16.42-30.86,19A44.67,44.67,0,0,1,133.72,108a29,29,0,0,1-6.19-.63c-3-.64-6.18-3.66-6.57-6.33a22.79,22.79,0,0,1,2.9-15.43c5.41-9.2,11.68-17.83,18.71-27.35.6-.81,1.19-1.63,1.81-2.49l.89-1.23,2.2-3.05-3.71-.58-6-.9c-4.55-.68-8.85-1.32-13.16-2.14-4.56-.86-9-1.83-12.78-4.16-2.16-1.32-4.4-2.58-6.57-3.8-1-.56-2-1.12-3-1.7l-2-1.11Z"/><path class="cls-1" d="M341.7,2.57c.57.35,1.43.57,1.75,1.1,1.4,2.32,2.61,4.74,4,7.09.5.89,1.25,1.64,1.78,2.52q3,4.91,5.83,9.86,6.18,10.59,12.32,21.2,7.57,13,15.17,26.07,7.49,12.82,15,25.65,5.5,9.42,11,18.84c1.13,1.95.73,3.48-1.25,4.65q-13.87,8.22-27.79,16.39a4.37,4.37,0,0,1-2.16.75c-1.05,0-1.86-.71-2.69-2.13q-7.61-13.11-15.26-26.19-7.08-12.15-14.15-24.32T331.12,59.89c-3.57-6.1-18.39-31.74-20.77-35.55-1-1.61-.37-3.36,1.34-4.37q14-8.28,28.06-16.57a15,15,0,0,1,1.95-.83M341.89,0l-1.07.45-.67.26a9.72,9.72,0,0,0-1.57.7L318.14,13.48,310.52,18a5.81,5.81,0,0,0-2.81,3.6,5.12,5.12,0,0,0,.69,4c1.71,2.74,10.19,17.35,15.8,27,2.16,3.72,4,6.83,4.93,8.48l3.78,6.48q5.18,8.84,10.33,17.68,3.84,6.57,7.65,13.14l6.5,11.18,5.56,9.53q4.86,8.32,9.7,16.65c.47.81,1.9,3.28,4.68,3.28a6.55,6.55,0,0,0,3.33-1.06c8.37-4.92,17.46-10.28,27.79-16.4,3.08-1.82,3.85-4.73,2.07-7.78q-4.17-7.17-8.37-14.33L399.5,94.9l-5-8.55q-5-8.55-10-17.1-7-12.06-14.05-24.13l-1.12-1.93-5.22-9Q360.57,28.09,357,22c-2.12-3.64-4-6.87-5.85-9.89a14.74,14.74,0,0,0-1-1.43,10.54,10.54,0,0,1-.75-1c-.54-.95-1.08-1.95-1.6-2.91-.76-1.39-1.54-2.82-2.38-4.23A4.62,4.62,0,0,0,343.27.79c-.14-.07-.31-.14-.38-.19l-1-.6Z"/><path class="cls-1" d="M228.26,33.3c1.61,0,3.22,0,4.83.07A103.73,103.73,0,0,1,248.41,35c9.3,1.69,18.5,3.82,27.77,5.65,4.86,1,9.73,2.1,14.72,2.1.82,0,1.65,0,2.48-.1,1.53-.13,5.33-.4,5.89-.4h.22c2.16,0,4.33-.74,6.44-.74s4.31.8,6.31,4c.91,1.48,10.85,16.87,14.86,23.76q9.66,16.56,19.28,33.13c4.42,7.59,8.88,15.16,13.37,22.82a2.81,2.81,0,0,1-.56,3.54c-1.39,1.26-2.79,2.51-4.11,3.85-4.34,4.37-8.66,8.78-13.88,12.21-2.3,1.51-4.79,2.79-7.21,4.14a2,2,0,0,1-1,.29,2.08,2.08,0,0,1-1.34-.56c-14.21-11.6-29.09-22.38-44.36-32.63-10.11-6.79-20.19-13.61-30.55-20-8.4-5.2-17.12-10-25.83-14.66C222.71,77,214.32,72.88,206,68.63a31.75,31.75,0,0,0-4.17-2,6.65,6.65,0,0,0-2-.32,4.34,4.34,0,0,0-1.16.15c-6,1.75-12.08,3.53-18,5.57a7.84,7.84,0,0,0-3.3,3,72.44,72.44,0,0,1-22.5,21,42.11,42.11,0,0,1-21.47,6.07c-.81,0-1.62,0-2.44-.07-3.22-.2-4.7-1.67-4.43-4.86a22.78,22.78,0,0,1,3.3-10.21c7.9-12.88,17.14-24.87,26.24-37,1.55-2.06,3-4.16,4.59-6.21s4.11-3.16,6.6-4c8.57-2.77,17.44-4,26.4-4.85,4.37-.39,8.74-.82,13.11-1.16.59,0,4.18-.23,4.81-.25,5.55-.13,11.1-.36,16.65-.36m0-2.3c-3.91,0-7.88.12-11.71.23l-5,.13c-.66,0-4.3.2-4.93.25-3,.23-6,.51-8.93.79l-4.21.38c-7.47.67-17.27,1.83-26.91,4.95-2.83.91-5.72,2.12-7.72,4.76-.84,1.1-1.66,2.23-2.46,3.32s-1.42,1.94-2.14,2.89q-1.37,1.83-2.74,3.64c-8.09,10.73-16.46,21.82-23.63,33.51a25.08,25.08,0,0,0-3.63,11.22,6.75,6.75,0,0,0,1.39,5.17,7.07,7.07,0,0,0,5.2,2.17c.86,0,1.73.08,2.58.08a44.63,44.63,0,0,0,22.63-6.38,74.17,74.17,0,0,0,23.21-21.7c1.13-1.58,1.8-2.06,2.17-2.19,5.9-2,11.85-3.77,17.92-5.53a2,2,0,0,1,.52-.06,4.07,4.07,0,0,1,1.23.21A19.5,19.5,0,0,1,204,70.2l.92.48,7.26,3.68c5.8,2.94,11.8,6,17.6,9.11,9.25,5,17.57,9.55,25.72,14.6,9.43,5.84,18.8,12.13,27.86,18.22l2.62,1.76c16.57,11.13,31,21.76,44.18,32.51a4.41,4.41,0,0,0,2.8,1.07,4.32,4.32,0,0,0,2.12-.58c.58-.33,1.17-.65,1.77-1,1.85-1,3.76-2.06,5.58-3.26,5.28-3.47,9.66-7.89,13.9-12.17l.34-.34c1.24-1.25,2.6-2.48,3.91-3.66l.11-.1a5.16,5.16,0,0,0,1-6.42l-3.38-5.74c-3.35-5.71-6.68-11.38-10-17.06s-6.51-11.19-9.76-16.78-6.34-10.91-9.52-16.36-9.88-15.95-13.12-21c-.92-1.45-1.57-2.46-1.77-2.79-2.13-3.45-4.84-5.13-8.27-5.13a20.42,20.42,0,0,0-3.57.4,17,17,0,0,1-2.87.34h-.22c-.72,0-4.84.3-6.08.4-.74.06-1.51.09-2.29.09a62.23,62.23,0,0,1-12.35-1.66l-1.93-.39c-3.76-.74-7.59-1.55-11.28-2.33-5.4-1.14-11-2.32-16.51-3.32a104.79,104.79,0,0,0-15.68-1.71C231.6,31,230,31,228.26,31Z"/></g></g></svg>