<svg xmlns="http://www.w3.org/2000/svg" viewBox="0 0 387.07 286.91"><defs><style>.cls-1{fill:#FF9A15;}</style></defs><g id="Layer_2" data-name="Layer 2"><g id="Layer_1-2" data-name="Layer 1"><path class="cls-1" d="M19.93,118.89a3.13,3.13,0,0,1,2.62,1.4l16.73,24.13a11.08,11.08,0,0,0,9.11,4.77H367.17a3.24,3.24,0,0,1,3.24,3.23V281.21a3.24,3.24,0,0,1-3.24,3.24H19.9a3.24,3.24,0,0,1-3.24-3.24V122.13a3.22,3.22,0,0,1,3.27-3.24m0-2.46a5.65,5.65,0,0,0-5.73,5.7V281.21a5.71,5.71,0,0,0,5.7,5.7H367.17a5.71,5.71,0,0,0,5.7-5.7V152.42a5.71,5.71,0,0,0-5.7-5.69H48.39A8.62,8.62,0,0,1,41.31,143L24.58,118.89a5.62,5.62,0,0,0-4.65-2.46Z"/><path class="cls-1" d="M78.59,165.59a5.63,5.63,0,0,1,5.62,5.63v28.89a5.62,5.62,0,0,1-5.62,5.62H49.69a5.62,5.62,0,0,1-5.62-5.62V171.22a5.63,5.63,0,0,1,5.62-5.63h28.9m-18.75,30h8.6A5.63,5.63,0,0,0,74.06,190v-8.6a5.62,5.62,0,0,0-5.62-5.62h-8.6a5.62,5.62,0,0,0-5.62,5.62V190a5.62,5.62,0,0,0,5.62,5.63m18.75-32.46H49.69a8.09,8.09,0,0,0-8.08,8.09v28.89a8.09,8.09,0,0,0,8.08,8.09h28.9a8.1,8.1,0,0,0,8.08-8.09V171.22a8.1,8.1,0,0,0-8.08-8.09Zm-18.75,30A3.17,3.17,0,0,1,56.68,190v-8.6a3.17,3.17,0,0,1,3.16-3.16h8.6a3.17,3.17,0,0,1,3.16,3.16V190a3.17,3.17,0,0,1-3.16,3.17Z"/><path class="cls-1" d="M78.59,224.42A5.62,5.62,0,0,1,84.21,230v28.9a5.62,5.62,0,0,1-5.62,5.62H49.69a5.62,5.62,0,0,1-5.62-5.62V230a5.62,5.62,0,0,1,5.62-5.62h28.9m-18.75,30h8.6a5.62,5.62,0,0,0,5.62-5.62v-8.6a5.62,5.62,0,0,0-5.62-5.62h-8.6a5.62,5.62,0,0,0-5.62,5.62v8.6a5.61,5.61,0,0,0,5.62,5.62M78.59,222H49.69A8.09,8.09,0,0,0,41.61,230v28.9A8.08,8.08,0,0,0,49.69,267h28.9a8.09,8.09,0,0,0,8.08-8.08V230A8.1,8.1,0,0,0,78.59,222ZM59.84,252a3.17,3.17,0,0,1-3.16-3.16v-8.6A3.17,3.17,0,0,1,59.84,237h8.6a3.17,3.17,0,0,1,3.16,3.16v8.6A3.17,3.17,0,0,1,68.44,252Z"/><path class="cls-1" d="M341.66,165.59a4,4,0,1,1,0,8H103.33a4,4,0,0,1,0-8H341.66m0-2.46H103.33a6.44,6.44,0,1,0,0,12.88H341.66a6.44,6.44,0,0,0,0-12.88Z"/><path class="cls-1" d="M224.1,187.63a4,4,0,1,1,0,8H103.33a4,4,0,0,1,0-8H224.1m0-2.46H103.33a6.44,6.44,0,1,0,0,12.88H224.1a6.44,6.44,0,0,0,0-12.88Z"/><path class="cls-1" d="M341.66,224.42a4,4,0,0,1,0,8H103.33a4,4,0,0,1,0-8H341.66m0-2.46H103.33a6.44,6.44,0,0,0,0,12.88H341.66a6.44,6.44,0,0,0,0-12.88Z"/><path class="cls-1" d="M224.1,246.46a4,4,0,1,1,0,7.95H103.33a4,4,0,1,1,0-7.95H224.1m0-2.47H103.33a6.45,6.45,0,0,0,0,12.89H224.1a6.45,6.45,0,0,0,0-12.89Z"/><path class="cls-1" d="M301.17,2.46a62.27,62.27,0,0,1,62.07,57.4h18.12a3.26,3.26,0,0,1,0,6.51H363.41A62.28,62.28,0,1,1,257.15,20.68a334.9,334.9,0,0,0-105.87-.06A62.28,62.28,0,1,1,45.13,68h-18a3.26,3.26,0,0,1,0-6.51h18A61.87,61.87,0,0,1,50.8,38.58H6.51a4,4,0,0,1-4-4V13A4,4,0,0,1,6.51,9H77.57A4,4,0,0,1,79,9.25a62.25,62.25,0,0,1,64.46,4.81,340.63,340.63,0,0,1,60.25-5.34h.31a339.55,339.55,0,0,1,60.68,5.36v.16A62,62,0,0,1,301.17,2.46m0,118.06a55.78,55.78,0,1,0-55.78-55.78,55.77,55.77,0,0,0,55.78,55.78m-193.84,0A55.78,55.78,0,1,0,81.62,15.25V34.53a4,4,0,0,1-4.05,4H58.07a55.77,55.77,0,0,0,49.26,81.94M301.17,0a64.21,64.21,0,0,0-36.83,11.51,342.55,342.55,0,0,0-60.28-5.25h-.31a342.5,342.5,0,0,0-59.67,5.2A64.73,64.73,0,0,0,78.79,6.62a7.1,7.1,0,0,0-1.22-.11H6.51A6.51,6.51,0,0,0,0,13V34.53A6.52,6.52,0,0,0,6.51,41H47.07a64.14,64.14,0,0,0-4.24,18H27.14a5.72,5.72,0,0,0,0,11.43H42.83A64.75,64.75,0,1,0,156.26,22.35a334.2,334.2,0,0,1,95.93,0A64.74,64.74,0,1,0,365.76,68.83h15.6a5.72,5.72,0,0,0,0-11.43H365.48A64.75,64.75,0,0,0,301.17,0Zm0,118.06a53.32,53.32,0,1,1,53.31-53.32,53.38,53.38,0,0,1-53.31,53.32ZM84.08,16.77a52.56,52.56,0,0,1,23.25-5.34A53.32,53.32,0,1,1,59.57,41h18a6.52,6.52,0,0,0,6.51-6.51V16.77Z"/></g></g></svg>