<svg xmlns="http://www.w3.org/2000/svg" viewBox="0 0 43.64 35.6"><defs><style>.cls-1,.cls-2{fill:none;stroke:#f18601;stroke-linecap:round;stroke-width:0.75px;}.cls-1{stroke-linejoin:round;}.cls-2{stroke-miterlimit:10;}</style></defs><g id="Layer_2" data-name="Layer 2"><g id="Layer_1-2" data-name="Layer 1"><rect class="cls-1" x="0.38" y="0.38" width="17.91" height="1.61"/><path class="cls-2" d="M40.59,35.23H4.13a2.66,2.66,0,0,1-2.68-2.69v-.1a2.65,2.65,0,0,1,2.68-2.68H40.59a2.65,2.65,0,0,1,2.68,2.68v.1A2.66,2.66,0,0,1,40.59,35.23Z"/><circle class="cls-2" cx="37.78" cy="32.62" r="1.3"/><circle class="cls-2" cx="4.24" cy="32.44" r="1.39"/><polygon class="cls-1" points="12.81 11.74 5.84 11.74 1.77 3.59 16.89 3.59 12.81 11.74"/><rect class="cls-1" x="7.24" y="13.35" width="4.18" height="1.61"/><path class="cls-1" d="M34.88,28.53H31.67a1.55,1.55,0,0,1-1.5-1.5v-2.6h6.21V27A1.42,1.42,0,0,1,34.88,28.53Z"/><line class="cls-2" x1="32.67" y1="21.93" x2="33.67" y2="21.93"/><line class="cls-2" x1="31.17" y1="23.23" x2="35.28" y2="23.23"/><path class="cls-1" d="M11,28H7.56A1.65,1.65,0,0,1,6,26.43V23.64H12.6v2.79A1.52,1.52,0,0,1,11,28Z"/><path class="cls-1" d="M24.18,28H20.75a1.65,1.65,0,0,1-1.61-1.61V23.64h6.65v2.79A1.52,1.52,0,0,1,24.18,28Z"/><line class="cls-2" x1="8.52" y1="16.57" x2="8.52" y2="17.64"/><line class="cls-2" x1="9.6" y1="18.71" x2="9.6" y2="19.78"/><line class="cls-2" x1="8.52" y1="20.96" x2="8.52" y2="22.04"/><line class="cls-2" x1="21.82" y1="20.96" x2="22.89" y2="20.96"/><line class="cls-2" x1="20.21" y1="22.36" x2="24.61" y2="22.36"/></g></g></svg>