<svg xmlns="http://www.w3.org/2000/svg" viewBox="0 0 43.7 35.74"><defs><style>.cls-1,.cls-2,.cls-3,.cls-4{fill:none;stroke:#f18601;stroke-miterlimit:10;}.cls-1,.cls-2{stroke-width:0.75px;}.cls-2,.cls-3{stroke-linecap:round;}.cls-3{stroke-width:0.93px;}.cls-4{stroke-width:0.69px;}</style></defs><g id="Layer_2" data-name="Layer 2"><g id="Layer_2-2" data-name="Layer 2"><path class="cls-1" d="M11.85,22.84a4.06,4.06,0,1,1,4.05-4.06A4,4,0,0,1,11.85,22.84Z"/><line class="cls-2" x1="10.15" y1="17.21" x2="13.55" y2="20.48"/><path class="cls-1" d="M11.72,26.89,5.57,20.74a2.93,2.93,0,0,0-4.18,0l-.13.14a2.91,2.91,0,0,0,0,4.18L7.4,31.2a2.92,2.92,0,0,0,4.19,0l.13-.13A3.19,3.19,0,0,0,11.72,26.89Z"/><line class="cls-2" x1="5.44" y1="27.02" x2="7.53" y2="24.93"/><line class="cls-3" x1="38.77" y1="2.37" x2="38.77" y2="7.06"/><line class="cls-3" x1="36.42" y1="2.37" x2="36.42" y2="7.06"/><line class="cls-3" x1="34.08" y1="2.37" x2="34.08" y2="7.06"/><line class="cls-3" x1="31.74" y1="2.37" x2="31.74" y2="7.06"/><line class="cls-3" x1="29.39" y1="2.37" x2="29.39" y2="7.06"/><line class="cls-3" x1="27.05" y1="2.37" x2="27.05" y2="7.06"/><line class="cls-3" x1="24.7" y1="2.37" x2="24.7" y2="7.06"/><line class="cls-3" x1="22.36" y1="2.37" x2="22.36" y2="7.06"/><rect class="cls-4" x="19.5" y="0.35" width="22.61" height="8.62" rx="2.13"/><path class="cls-1" d="M29.43,28.59a.85.85,0,0,1-.85-.85V26a.85.85,0,0,0-.85-.85H26a.85.85,0,0,1-.85-.85V21.72a.84.84,0,0,1,.85-.84h1.7a.85.85,0,0,0,.85-.85V18.32a.85.85,0,0,1,.85-.84h2.62a.85.85,0,0,1,.85.84V20a.84.84,0,0,0,.84.85h1.84a.84.84,0,0,1,.85.84v2.62a.85.85,0,0,1-.85.85H33.87A.85.85,0,0,0,33,26v1.75a.8.8,0,0,1-.8.8Z"/><path class="cls-1" d="M39.68,35.36H21.94a3.66,3.66,0,0,1-3.65-3.64l0-17.78a3.65,3.65,0,0,1,3.65-3.66H39.63a3.66,3.66,0,0,1,3.65,3.64l0,17.78A3.66,3.66,0,0,1,39.68,35.36Z"/><path class="cls-1" d="M37.48,31H24a2.61,2.61,0,0,1-2.77-2.41l0-11.73A2.61,2.61,0,0,1,24,14.42H37.45a2.62,2.62,0,0,1,2.77,2.4l0,11.74A2.61,2.61,0,0,1,37.48,31Z"/></g></g></svg>