<svg xmlns="http://www.w3.org/2000/svg" viewBox="0 0 40.75 34.75"><defs><style>.cls-1,.cls-2,.cls-3,.cls-4{fill:none;stroke:#f18601;stroke-width:0.75px;}.cls-1,.cls-2{stroke-miterlimit:10;}.cls-2,.cls-3{stroke-linecap:round;}.cls-2{stroke-dasharray:0.5 2;}.cls-3,.cls-4{stroke-linejoin:round;}</style></defs><g id="Layer_2" data-name="Layer 2"><g id="Layer_1-2" data-name="Layer 1"><circle class="cls-1" cx="9.07" cy="9.07" r="8.7"/><circle class="cls-1" cx="30.88" cy="16.47" r="9.5"/><circle class="cls-1" cx="12.57" cy="31.57" r="2.8"/><path class="cls-1" d="M12.57,33.27a1.7,1.7,0,0,1,0-3.4,1.64,1.64,0,0,1,1.71,1.7A1.77,1.77,0,0,1,12.57,33.27Z"/><line class="cls-2" x1="10.47" y1="19.18" x2="11.87" y2="28.27"/><line class="cls-2" x1="22.07" y1="23.27" x2="15.68" y2="29.47"/><path class="cls-3" d="M14.07,12.18l.5-1.21-.89-.6a3.41,3.41,0,0,0,0-2l1-.6-.5-1.2-1.11.2a3.66,3.66,0,0,0-1.39-1.4L12,4.27l-1.2-.5-.6.9a4.52,4.52,0,0,0-2-.1l-.6-1-1.2.5.2,1.1a3.16,3.16,0,0,0-1.4,1.4l-1.1-.3-.6,1.2.9.6a4.52,4.52,0,0,0-.1,2l-.9.61.5,1.2,1.1-.2a4,4,0,0,0,1.4,1.5l-.2,1,1.2.5.6-.9a3.4,3.4,0,0,0,2,0l.6.9,1.21-.5-.21-1.11A3,3,0,0,0,13,11.68Z"/><circle class="cls-1" cx="9.07" cy="9.27" r="3.1"/><path class="cls-4" d="M31.38,10.18h-1.3a.47.47,0,0,0-.5.5v4.39l-3.4,4a2.24,2.24,0,0,0-.1,2.7,2.14,2.14,0,0,0,1.7.8h5.7a2.09,2.09,0,0,0,2.1-2,2.39,2.39,0,0,0-.5-1.4l-3.3-4.1v-4.4C31.88,10.37,31.68,10.18,31.38,10.18Z"/><path class="cls-1" d="M27.77,21.27a.93.93,0,0,1-.7-.3.9.9,0,0,1,.1-1.09l2.1-2.5,2.8-.1,2.1,2.6a1.69,1.69,0,0,1,.2.5c0,.4-.3.95-.7.95Z"/></g></g></svg>