<svg xmlns="http://www.w3.org/2000/svg" viewBox="0 0 593.65 751.68"><defs><style>.cls-1{fill:#82959a;}</style></defs><g id="Layer_2" data-name="Layer 2"><g id="Layer_1-2" data-name="Layer 1"><path class="cls-1" d="M296.83,9.22a8.26,8.26,0,1,1-8.26,8.26,8.26,8.26,0,0,1,8.26-8.26m0-9.22a17.48,17.48,0,1,0,17.48,17.48A17.5,17.5,0,0,0,296.83,0Z"/><path class="cls-1" d="M576.17,188.42a8.26,8.26,0,1,1-8.26,8.26,8.26,8.26,0,0,1,8.26-8.26m0-9.22a17.48,17.48,0,1,0,17.48,17.48,17.5,17.5,0,0,0-17.48-17.48Z"/><path class="cls-1" d="M17.48,188.42a8.26,8.26,0,1,1-8.26,8.26,8.26,8.26,0,0,1,8.26-8.26m0-9.22A17.48,17.48,0,1,0,35,196.68,17.5,17.5,0,0,0,17.48,179.2Z"/><path class="cls-1" d="M576.17,546.76a8.26,8.26,0,1,1-8.26,8.26,8.26,8.26,0,0,1,8.26-8.26m0-9.22A17.48,17.48,0,1,0,593.65,555a17.5,17.5,0,0,0-17.48-17.48Z"/><path class="cls-1" d="M296.83,725.94a8.26,8.26,0,1,1-8.26,8.26,8.26,8.26,0,0,1,8.26-8.26m0-9.23a17.49,17.49,0,1,0,17.48,17.49,17.51,17.51,0,0,0-17.48-17.49Z"/><path class="cls-1" d="M296.83,367.58a8.26,8.26,0,1,1-8.26,8.26,8.26,8.26,0,0,1,8.26-8.26m0-9.22a17.48,17.48,0,1,0,17.48,17.48,17.5,17.5,0,0,0-17.48-17.48Z"/><path class="cls-1" d="M17.48,546.76A8.26,8.26,0,1,1,9.22,555a8.26,8.26,0,0,1,8.26-8.26m0-9.22A17.48,17.48,0,1,0,35,555a17.5,17.5,0,0,0-17.48-17.48Z"/><polygon class="cls-1" points="222.07 407.01 282.6 429.36 282.6 418.56 227.21 398.11 222.07 407.01"/><polygon class="cls-1" points="212.25 424.02 282.6 449.99 282.6 439.19 217.39 415.12 212.25 424.02"/><polygon class="cls-1" points="202.42 441.03 282.6 470.63 282.6 459.82 207.56 432.13 202.42 441.03"/><polygon class="cls-1" points="192.6 458.04 282.6 491.26 282.6 480.46 197.74 449.14 192.6 458.04"/><polygon class="cls-1" points="182.78 475.05 282.6 511.89 282.6 501.09 187.92 466.14 182.78 475.05"/><polygon class="cls-1" points="172.96 492.06 282.6 532.52 282.6 521.72 178.1 483.15 172.96 492.06"/><polygon class="cls-1" points="163.14 509.07 282.6 553.16 282.6 542.36 168.28 500.16 163.14 509.07"/><polygon class="cls-1" points="153.32 526.08 282.6 573.79 282.6 562.99 158.46 517.17 153.32 526.08"/><path class="cls-1" d="M144.51,541.33c-.34.59-.56,1.21-.85,1.82L282.6,594.42v-10.8l-134-49.44Z"/><path class="cls-1" d="M141.82,558.56a29.88,29.88,0,0,0,1.91,5.24l113.2,41.77c8.51.52,16.93.72,25.67.77v-2.08L141.33,552.12A22.2,22.2,0,0,0,141.82,558.56Z"/><path class="cls-1" d="M218.84,601.35l-63.69-23.5C168.94,589.12,191.71,596.82,218.84,601.35Z"/><path class="cls-1" d="M346,176.51a4,4,0,0,0-2.62-3.76l-24.52-9.05a5.11,5.11,0,0,0-1.68-.32c-8.52-.12-18.67-.09-28.27.07L346,184.52Z"/><path class="cls-1" d="M346,194.35l-81.43-30a54,54,0,0,0-6.94.74,10.8,10.8,0,0,0-7.13,2.73,9.37,9.37,0,0,0-1.23,1.69L346,205.15Z"/><polygon class="cls-1" points="346.01 214.98 247.56 178.65 247.56 189.46 346.01 225.78 346.01 214.98"/><polygon class="cls-1" points="346.01 235.61 247.56 199.29 247.56 210.09 346.01 246.41 346.01 235.61"/><polygon class="cls-1" points="346.01 256.25 247.56 219.92 247.56 230.72 346.01 267.05 346.01 256.25"/><polygon class="cls-1" points="346.01 276.88 247.56 240.55 247.56 251.35 346.01 287.68 346.01 276.88"/><polygon class="cls-1" points="346.01 297.51 247.56 261.19 247.56 271.99 346.01 308.31 346.01 297.51"/><polygon class="cls-1" points="346.01 318.14 247.56 281.82 247.56 292.62 345.39 328.72 346.01 328.33 346.01 318.14"/><polygon class="cls-1" points="247.56 302.45 247.56 313.25 324.83 341.76 335.6 334.94 247.56 302.45"/><path class="cls-1" d="M339.29,367.73,354,373.17a113.73,113.73,0,0,1-4.14-12.2Z"/><path class="cls-1" d="M571.62,220.5V531.2a23.8,23.8,0,0,1,9.11,0V220.5a23.8,23.8,0,0,1-9.11,0Z"/><path class="cls-1" d="M314.43,717.49a24.33,24.33,0,0,1,4.92,7.67L558.59,571.7a24.38,24.38,0,0,1-4.93-7.66Z"/><path class="cls-1" d="M40,564a24.2,24.2,0,0,1-4.93,7.66L274.3,725.16a24.33,24.33,0,0,1,4.92-7.67Z"/><path class="cls-1" d="M22,531.2V220.48a23.8,23.8,0,0,1-9.11,0V531.2a23.8,23.8,0,0,1,9.11,0Z"/><path class="cls-1" d="M279.25,34.17a24.25,24.25,0,0,1-4.93-7.66L35.06,180A24.43,24.43,0,0,1,40,187.63Z"/><path class="cls-1" d="M558.61,180,319.33,26.5a24.33,24.33,0,0,1-4.92,7.67L553.67,187.64A24.34,24.34,0,0,1,558.61,180Z"/><polygon class="cls-1" points="311.2 419.27 397.33 451.05 389.4 437.32 311.2 408.46 311.2 419.27"/><polygon class="cls-1" points="311.2 439.9 412.46 477.26 404.54 463.54 311.2 429.1 311.2 439.9"/><polygon class="cls-1" points="311.2 460.53 427.61 503.49 419.68 489.76 311.2 449.73 311.2 460.53"/><polygon class="cls-1" points="311.2 481.17 442.75 529.7 434.82 515.98 311.2 470.37 311.2 481.17"/><path class="cls-1" d="M311.2,501.8l142.73,52.67a18.54,18.54,0,0,0-.51-5,20.72,20.72,0,0,0-2.25-5.19L450,542.2,311.2,491Z"/><path class="cls-1" d="M311.2,522.43,444.71,571.7a31.09,31.09,0,0,0,6.71-8.33L311.2,511.63Z"/><path class="cls-1" d="M311.2,543.07l112.22,41.4a102.29,102.29,0,0,0,12.23-6.29L311.2,532.26Z"/><path class="cls-1" d="M311.2,563.7l82.72,30.52c5.75-1.47,11.15-3.08,16.28-4.8l-99-36.52Z"/><path class="cls-1" d="M311.2,584.33l46.2,17c6.86-1,13.54-2.15,20-3.43L311.2,573.53Z"/><path class="cls-1" d="M311.2,605l2.09.78c8.15-.44,16.23-1.07,24.18-1.88l-26.27-9.7Z"/><path class="cls-1" d="M301.34,153.89V41.3a23.54,23.54,0,0,1-9.11,0V153.89Z"/><path class="cls-1" d="M236.54,380.92c-1.38,3-2.85,6-4.52,8.86l-.13.22,50.71,18.73v-9.8a27.34,27.34,0,0,1-2.93-2.09Z"/><path class="cls-1" d="M292.27,402.57V710.33a23.8,23.8,0,0,1,9.11,0V402.55a26.74,26.74,0,0,1-4.59.4A28,28,0,0,1,292.27,402.57Z"/><path class="cls-1" d="M558.59,213.37a24.61,24.61,0,0,1-4.93-7.66L316.83,357.6a27,27,0,0,1,4.92,7.67Z"/><path class="cls-1" d="M40,205.68a24.36,24.36,0,0,1-4.93,7.67L271.84,365.22a27.14,27.14,0,0,1,4.94-7.65Z"/><path class="cls-1" d="M309.14,351.72,315,348l-67.47-24.89v5.14l21.38,13.55,21.13,7.79a27.1,27.1,0,0,1,19.07,2.15Z"/><path class="cls-1" d="M367.05,398.61l-5.5-9.51c-.75-1.32-1.29-2.72-2-4.06l-30-11.08-5.68,3.54a27.44,27.44,0,0,1-.75,4.91Z"/><path class="cls-1" d="M311.33,398.7l70.86,26.13-7.93-13.73-54.92-20.24A27.21,27.21,0,0,1,311.33,398.7Z"/><path class="cls-1" d="M253.73,366.63l-10.59-3.91c-.89,3.26-1.93,6.48-3.09,9.66l30.82,11.38a26.72,26.72,0,0,1-1.18-7.36Z"/><path class="cls-1" d="M193.49,436.61,35,538.27a24.33,24.33,0,0,1,5,7.65L183.57,453.8Z"/><path class="cls-1" d="M400.15,436.63,558.64,538.3a24.21,24.21,0,0,0-4.95,7.65L410.08,453.83Z"/></g></g></svg>